<?xml version="1.0" encoding="utf-8"?>
<!-- Generator: Adobe Illustrator 27.5.0, SVG Export Plug-In . SVG Version: 6.00 Build 0)  -->
<svg version="1.1" id="Layer_1" xmlns="http://www.w3.org/2000/svg" xmlns:xlink="http://www.w3.org/1999/xlink" x="0px" y="0px"
	 viewBox="305.393 278.85 28.417 23.875" style="enable-background:new 305.393 278.85 28.417 23.875;" xml:space="preserve">
<rect x="305.393" y="278.85" style="fill-rule:evenodd;clip-rule:evenodd;fill:#EFEFEF;" width="28.417" height="23.875"/>
<path style="fill:#475E88;" d="M313.373,296.4c0.087,0,0.172-0.02,0.241-0.065c0.109-0.072,0.134-0.18,0.135-0.241
	c-0.001-0.119-0.046-0.207-0.237-0.345l-0.043-0.03c-0.155-0.107-0.194-0.161-0.196-0.246c-0.001-0.105,0.087-0.17,0.198-0.17
	c0.144,0,0.188,0.061,0.198,0.077c0.01,0.017,0.019,0.055,0.02,0.072c0.003,0.014,0.003,0.021,0.015,0.021
	c0.007,0,0.009-0.012,0.01-0.035c-0.002-0.098,0.007-0.147,0.007-0.155c0-0.007-0.005-0.009-0.018-0.009
	c-0.013,0-0.023-0.002-0.056-0.007c-0.04-0.01-0.086-0.017-0.148-0.015c-0.203,0.001-0.331,0.108-0.329,0.266
	c0,0.096,0.04,0.189,0.207,0.314l0.076,0.055c0.134,0.105,0.182,0.161,0.183,0.264c0,0.092-0.075,0.194-0.227,0.195
	c-0.108,0-0.213-0.04-0.236-0.151c-0.007-0.02-0.008-0.039-0.007-0.055c0-0.01,0-0.016-0.01-0.016
	c-0.007,0.004-0.011,0.011-0.013,0.023c-0.001,0.023-0.006,0.083-0.006,0.158c-0.001,0.038,0.001,0.044,0.024,0.054
	C313.225,296.389,313.298,296.4,313.373,296.4L313.373,296.4z M316.321,296.477c0.258,0.128,0.463,0.188,0.659,0.188
	c0.234,0,0.412-0.063,0.502-0.1c0.009-0.004,0.014-0.011,0.013-0.017c0.001-0.002-0.003-0.007-0.008-0.007
	c-0.006,0.001-0.013,0.004-0.023,0.006c-0.109,0.042-0.234,0.061-0.313,0.061c-0.082-0.003-0.322-0.008-0.671-0.17l-0.329-0.155
	c0.105-0.063,0.281-0.233,0.282-0.49c-0.001-0.342-0.27-0.55-0.629-0.549c-0.44,0.002-0.628,0.339-0.627,0.574
	c0,0.266,0.185,0.577,0.626,0.574c0.083,0,0.191-0.022,0.248-0.052L316.321,296.477z M315.329,295.776
	c-0.001-0.318,0.197-0.481,0.463-0.483c0.253,0,0.485,0.189,0.487,0.538c0.003,0.425-0.296,0.503-0.44,0.503
	C315.552,296.338,315.33,296.116,315.329,295.776L315.329,295.776z M317.923,295.897c0,0.213,0.063,0.313,0.14,0.384
	c0.115,0.098,0.276,0.103,0.331,0.1c0.093,0.003,0.213-0.015,0.329-0.107c0.125-0.104,0.145-0.278,0.145-0.438v-0.157
	c-0.002-0.228-0.001-0.267,0-0.313c0.003-0.055,0.015-0.076,0.06-0.088c0.019,0,0.027-0.003,0.038-0.002
	c0.007-0.001,0.015-0.003,0.014-0.01c0-0.009-0.007-0.01-0.027-0.012c-0.046,0-0.12,0.005-0.133,0.006
	c-0.008-0.001-0.098-0.006-0.168-0.004c-0.017,0-0.025,0.001-0.025,0.011c-0.001,0.006,0.005,0.009,0.011,0.009
	c0.015,0.001,0.042,0.002,0.054,0.005c0.054,0.01,0.065,0.034,0.07,0.085c0.001,0.046,0.003,0.085,0.002,0.314l0.001,0.181
	c0.002,0.154-0.016,0.278-0.09,0.359c-0.056,0.064-0.153,0.106-0.25,0.106c-0.089,0.001-0.162-0.014-0.24-0.079
	c-0.068-0.061-0.12-0.149-0.12-0.359l-0.003-0.205c0-0.229,0-0.268,0.004-0.313c0.001-0.054,0.014-0.079,0.058-0.087
	c0.018-0.002,0.029-0.002,0.039-0.004c0.006,0.002,0.013-0.005,0.013-0.009c0.002-0.009-0.006-0.011-0.025-0.011
	c-0.048,0-0.142,0.006-0.158,0.006c-0.013-0.003-0.11-0.005-0.182-0.005c-0.018-0.001-0.023,0.001-0.024,0.013
	c0,0.005,0.005,0.008,0.011,0.008c0.015,0.001,0.041,0.002,0.054,0.002c0.051,0.012,0.066,0.037,0.071,0.086
	c0.001,0.046,0.001,0.086,0.001,0.314L317.923,295.897z M320.372,296.193c-0.031,0.073-0.063,0.128-0.134,0.138
	c-0.014,0-0.036,0.003-0.049,0.003c-0.007-0.001-0.013,0.004-0.013,0.009c0,0.011,0.009,0.014,0.031,0.013
	c0.074,0,0.162-0.005,0.181-0.003c0.02-0.002,0.086,0.001,0.124,0.002c0.015,0,0.024-0.004,0.025-0.014
	c-0.002-0.004-0.005-0.009-0.017-0.008h-0.018c-0.026-0.001-0.057-0.011-0.057-0.042c0-0.026,0.007-0.061,0.022-0.099l0.094-0.257
	c-0.001-0.008,0.008-0.013,0.013-0.014l0.347-0.002c0.008,0.002,0.011,0.004,0.014,0.01l0.152,0.357
	c0.008,0.026,0.001,0.042-0.013,0.04c-0.005,0.002-0.011,0.006-0.01,0.012c-0.001,0.01,0.016,0.01,0.047,0.009
	c0.109,0.003,0.227,0.005,0.25,0.005c0.017-0.002,0.031-0.005,0.03-0.014c0.001-0.007-0.006-0.009-0.015-0.008
	c-0.016,0-0.04-0.001-0.064-0.009c-0.032-0.009-0.081-0.032-0.138-0.161c-0.101-0.223-0.351-0.823-0.374-0.881
	c-0.02-0.046-0.025-0.053-0.034-0.052c-0.009-0.001-0.021,0.008-0.037,0.056L320.372,296.193z M320.591,295.87
	c-0.005,0.001-0.009-0.002-0.005-0.01l0.14-0.397c0.007-0.019,0.016-0.02,0.023,0l0.154,0.395c-0.001,0.006,0,0.012-0.008,0.011
	L320.591,295.87z M322.808,295.924c-0.002,0.141-0.002,0.256-0.008,0.315c-0.005,0.042-0.013,0.075-0.043,0.083
	c-0.016,0.002-0.036,0.003-0.05,0.004c-0.009,0.001-0.014,0.007-0.013,0.011c0.001,0.01,0.008,0.011,0.025,0.012
	c0.048-0.001,0.148-0.005,0.148-0.005c0.01,0,0.11,0.004,0.198,0.004c0.017-0.002,0.026-0.004,0.024-0.013
	c0-0.003-0.004-0.011-0.012-0.011c-0.015,0-0.052-0.002-0.073-0.002c-0.048-0.008-0.057-0.041-0.061-0.082
	c-0.008-0.06-0.008-0.175-0.008-0.317l-0.002-0.038c0-0.005,0.006-0.007,0.01-0.008l0.196,0.001c0.01,0,0.017,0.004,0.023,0.008
	c0.032,0.039,0.106,0.138,0.172,0.214c0.092,0.112,0.148,0.184,0.222,0.218c0.039,0.02,0.078,0.029,0.167,0.026l0.112,0.002
	c0.03,0,0.041-0.006,0.041-0.013c-0.001-0.006-0.006-0.01-0.017-0.01c-0.009,0.001-0.03,0.001-0.061-0.003
	c-0.039-0.009-0.109-0.021-0.195-0.105c-0.092-0.092-0.202-0.22-0.332-0.371c0.143-0.122,0.19-0.23,0.188-0.342
	c0-0.099-0.067-0.172-0.106-0.198c-0.086-0.054-0.192-0.061-0.289-0.06c-0.053-0.001-0.176,0.004-0.192,0.004
	c-0.007,0-0.108-0.003-0.179-0.003c-0.02-0.001-0.026,0.001-0.023,0.01c0,0.005,0.002,0.011,0.01,0.011
	c0.017,0.001,0.04,0.001,0.052,0.002c0.054,0.009,0.066,0.036,0.072,0.085c0.002,0.047,0,0.087,0.002,0.315L322.808,295.924z
	 M322.936,295.316c-0.001-0.011,0.004-0.017,0.012-0.021c0.015-0.003,0.058-0.007,0.105-0.007c0.169-0.001,0.275,0.108,0.277,0.289
	c-0.001,0.112-0.04,0.188-0.1,0.226c-0.035,0.024-0.08,0.028-0.117,0.029c-0.071,0-0.144-0.01-0.169-0.025
	c-0.007-0.003-0.009-0.009-0.011-0.017L322.936,295.316z M325.199,295.915c-0.001,0.141,0.002,0.256-0.005,0.316
	c-0.008,0.042-0.014,0.075-0.047,0.082c-0.013,0.001-0.032,0.003-0.046,0.006c-0.01-0.003-0.013,0.004-0.013,0.008
	c-0.002,0.007,0.007,0.011,0.025,0.012c0.021,0,0.06-0.006,0.091-0.007c0.037,0.005,0.061,0.002,0.064,0.001
	c0.022,0.001,0.063,0,0.123,0.004c0.065,0.002,0.152,0.006,0.274,0.006c0.061,0.002,0.075,0.002,0.084-0.039
	c0.008-0.031,0.02-0.129,0.019-0.143c0-0.01,0.001-0.022-0.01-0.021c-0.007-0.001-0.007,0.004-0.013,0.02
	c-0.012,0.06-0.026,0.093-0.071,0.106c-0.042,0.017-0.114,0.018-0.152,0.019c-0.16-0.002-0.179-0.021-0.188-0.123
	c0-0.029,0.001-0.196,0.001-0.248l-0.001-0.13c0-0.004,0.005-0.009,0.01-0.01c0.029,0,0.188,0.006,0.23,0.007
	c0.06,0.007,0.078,0.03,0.083,0.051c0.008,0.021,0.005,0.035,0.008,0.049c0.001,0.007,0.001,0.012,0.011,0.013
	c0.009,0.003,0.008-0.017,0.008-0.026c0-0.012,0.002-0.063,0.008-0.094c0.004-0.049,0.015-0.074,0.013-0.082
	c0-0.009,0-0.013-0.009-0.013c-0.005,0.002-0.013,0.008-0.024,0.02c-0.013,0.016-0.037,0.018-0.075,0.019
	c-0.039,0.005-0.23,0.008-0.252,0.007c-0.008,0-0.01-0.002-0.01-0.015l-0.001-0.406c0-0.007,0.004-0.014,0.01-0.013
	c0.018,0,0.19,0.002,0.218,0.005c0.086,0.008,0.102,0.026,0.113,0.047c0.008,0.019,0.01,0.042,0.009,0.054
	c-0.001,0.011,0.002,0.02,0.013,0.022c0.008,0,0.01-0.01,0.01-0.021c0.003-0.016,0.009-0.081,0.01-0.094
	c0.005-0.044,0.014-0.059,0.014-0.069c-0.001-0.005-0.001-0.012-0.003-0.012c-0.011-0.002-0.021,0.006-0.026,0.006
	c-0.016,0.002-0.037,0.005-0.067,0.008c-0.038,0.002-0.355,0.001-0.366,0.001l-0.067-0.001c-0.032-0.003-0.077-0.002-0.112-0.002
	c-0.017,0.001-0.027,0.002-0.029,0.012c0,0.006,0.009,0.011,0.017,0.009c0.014,0,0.04,0.002,0.054,0.005
	c0.052,0.01,0.063,0.033,0.068,0.084c0.002,0.045,0.003,0.085,0.003,0.314L325.199,295.915z"/>
<g>
	<path style="fill-rule:evenodd;clip-rule:evenodd;fill:#475E88;" d="M317.513,293.927c0.473-0.004,0.93-0.013,1.376-0.016
		c0.433-0.004,0.856-0.006,1.27-0.01c0.401-0.006,0.794-0.008,1.176-0.014c0.374-0.002,0.735-0.004,1.094-0.004
		c0.008-0.02,0.019-0.034,0.034-0.047c-0.363,0-0.738,0.002-1.123,0.005c-0.393,0.003-0.795,0.005-1.207,0.008
		c-0.87,0.008-1.532-0.384-1.414-0.921c0.091-0.436,0.193-0.912,0.307-1.439c0.125-0.579,0.262-1.23,0.42-1.96
		c-0.671-0.082-1.371-0.167-2.098-0.258c-0.76-0.095-1.557-0.192-2.391-0.299c0.117,0.88,0.224,1.652,0.312,2.331
		c0.083,0.603,0.155,1.143,0.221,1.628C315.571,293.521,316.502,293.933,317.513,293.927L317.513,293.927z"/>
	<defs>
		<filter id="Adobe_OpacityMaskFilter" filterUnits="userSpaceOnUse" x="316.59" y="289.162" width="4.711" height="6.332">
			<feColorMatrix  type="matrix" values="1 0 0 0 0  0 1 0 0 0  0 0 1 0 0  0 0 0 1 0"/>
		</filter>
	</defs>
	<mask maskUnits="userSpaceOnUse" x="316.59" y="289.162" width="4.711" height="6.332" id="SVGID_1_">
		<g style="filter:url(#Adobe_OpacityMaskFilter);">
			
				<linearGradient id="SVGID_00000068650133480213713960000008991382681351346080_" gradientUnits="userSpaceOnUse" x1="283.4272" y1="312.5153" x2="280.5698" y2="307.4382" gradientTransform="matrix(0.5316 0.8249 -0.8252 0.538 425.6766 -107.1832)">
				<stop  offset="0" style="stop-color:#000000"/>
				<stop  offset="0.0849" style="stop-color:#090909"/>
				<stop  offset="0.2266" style="stop-color:#232323"/>
				<stop  offset="0.4076" style="stop-color:#4D4D4D"/>
				<stop  offset="0.6207" style="stop-color:#878787"/>
				<stop  offset="0.8582" style="stop-color:#D0D0D0"/>
				<stop  offset="1" style="stop-color:#FFFFFF"/>
			</linearGradient>
			<polygon style="fill:url(#SVGID_00000068650133480213713960000008991382681351346080_);" points="317.69,297.522 
				315.519,292.146 321.247,288.14 323.415,293.512 			"/>
		</g>
	</mask>
	<g style="mask:url(#SVGID_1_);">
		<polygon style="fill:#FFFFFF;" points="319.947,289.162 321.301,289.541 319.264,295.493 316.59,293.211 		"/>
		<polygon style="fill:#FBFBFB;" points="319.947,289.162 321.299,289.546 319.268,295.453 316.614,293.228 		"/>
		<polygon style="fill:#F7F7F7;" points="319.947,289.162 321.296,289.55 319.272,295.412 316.638,293.243 		"/>
		<polygon style="fill:#F3F3F3;" points="319.947,289.162 321.294,289.555 319.275,295.372 316.662,293.26 		"/>
		<polygon style="fill:#EEEEEE;" points="319.947,289.162 321.293,289.56 319.278,295.331 316.686,293.276 		"/>
		<polygon style="fill:#EAEAEA;" points="319.947,289.162 321.29,289.565 319.282,295.291 316.71,293.293 		"/>
		<polygon style="fill:#E6E6E6;" points="319.947,289.162 321.288,289.569 319.286,295.25 316.734,293.309 		"/>
		<polygon style="fill:#E2E2E2;" points="319.947,289.162 321.286,289.574 319.29,295.21 316.758,293.325 		"/>
		<polygon style="fill:#DEDEDE;" points="319.947,289.162 321.283,289.578 319.293,295.169 316.782,293.342 		"/>
		<polygon style="fill:#DADADA;" points="319.947,289.162 321.281,289.583 319.296,295.129 316.806,293.357 		"/>
		<polygon style="fill:#D6D6D6;" points="319.947,289.162 321.279,289.587 319.3,295.088 316.83,293.374 		"/>
		<polygon style="fill:#D2D2D2;" points="319.947,289.162 321.276,289.592 319.304,295.048 316.854,293.391 		"/>
		<polygon style="fill:#CDCDCD;" points="319.947,289.162 321.274,289.597 319.307,295.007 316.878,293.407 		"/>
		<polygon style="fill:#C9C9C9;" points="319.947,289.162 321.272,289.602 319.311,294.967 316.902,293.423 		"/>
		<polygon style="fill:#C5C5C5;" points="319.947,289.162 321.269,289.606 319.315,294.927 316.926,293.44 		"/>
		<polygon style="fill:#C1C1C1;" points="319.947,289.162 321.267,289.611 319.318,294.886 316.95,293.456 		"/>
		<polygon style="fill:#BDBDBD;" points="319.947,289.162 321.265,289.616 319.322,294.846 316.974,293.472 		"/>
		<polygon style="fill:#B9B9B9;" points="319.947,289.162 321.262,289.62 319.325,294.805 316.998,293.488 		"/>
		<polygon style="fill:#B5B5B5;" points="319.947,289.162 321.26,289.625 319.329,294.765 317.022,293.505 		"/>
		<polygon style="fill:#B0B0B0;" points="319.947,289.162 321.258,289.629 319.333,294.724 317.046,293.522 		"/>
		<polygon style="fill:#ACACAC;" points="319.947,289.162 321.255,289.634 319.336,294.684 317.07,293.537 		"/>
		<polygon style="fill:#A8A8A8;" points="319.947,289.162 321.253,289.639 319.34,294.643 317.094,293.554 		"/>
		<polygon style="fill:#A4A4A4;" points="319.947,289.162 321.251,289.644 319.343,294.603 317.118,293.57 		"/>
		<polygon style="fill:#A0A0A0;" points="319.947,289.162 321.249,289.648 319.347,294.562 317.142,293.586 		"/>
		<polygon style="fill:#9C9C9C;" points="319.947,289.162 321.247,289.653 319.351,294.522 317.165,293.603 		"/>
		<polygon style="fill:#989898;" points="319.947,289.162 321.245,289.657 319.354,294.48 317.19,293.619 		"/>
		<polygon style="fill:#949494;" points="319.947,289.162 321.243,289.662 319.357,294.44 317.213,293.635 		"/>
		<polygon style="fill:#8F8F8F;" points="319.947,289.162 321.24,289.667 319.361,294.4 317.238,293.651 		"/>
		<polygon style="fill:#8B8B8B;" points="319.947,289.162 321.238,289.671 319.365,294.359 317.262,293.668 		"/>
		<polygon style="fill:#878787;" points="319.947,289.162 321.236,289.676 319.369,294.319 317.286,293.685 		"/>
		<polygon style="fill:#838383;" points="319.947,289.162 321.233,289.681 319.372,294.278 317.31,293.7 		"/>
		<polygon style="fill:#7F7F7F;" points="319.947,289.162 321.231,289.686 319.376,294.238 317.333,293.717 		"/>
		<polygon style="fill:#7B7B7B;" points="319.947,289.162 321.229,289.69 319.379,294.197 317.357,293.733 		"/>
		<polygon style="fill:#777777;" points="319.947,289.162 321.226,289.695 319.383,294.157 317.381,293.749 		"/>
		<polygon style="fill:#727272;" points="319.947,289.162 321.224,289.699 319.386,294.116 317.406,293.766 		"/>
		<polygon style="fill:#6E6E6E;" points="319.947,289.162 321.222,289.704 319.39,294.076 317.43,293.782 		"/>
		<polygon style="fill:#6A6A6A;" points="319.947,289.162 321.219,289.708 319.394,294.035 317.454,293.799 		"/>
		<polygon style="fill:#666666;" points="319.947,289.162 321.217,289.713 319.398,293.995 317.478,293.815 		"/>
		<polygon style="fill:#626262;" points="319.947,289.162 321.215,289.718 319.401,293.954 317.501,293.831 		"/>
		<polygon style="fill:#5E5E5E;" points="319.947,289.162 321.212,289.723 319.404,293.914 317.525,293.848 		"/>
		<polygon style="fill:#5A5A5A;" points="319.947,289.162 321.21,289.728 319.408,293.874 317.549,293.863 		"/>
		<polygon style="fill:#555555;" points="319.947,289.162 321.208,289.732 319.412,293.833 317.574,293.88 		"/>
		<polygon style="fill:#515151;" points="319.947,289.162 321.206,289.737 319.415,293.793 317.598,293.897 		"/>
		<polygon style="fill:#4D4D4D;" points="319.947,289.162 321.204,289.741 319.419,293.752 317.622,293.913 		"/>
		<polygon style="fill:#494949;" points="319.947,289.162 321.202,289.746 319.422,293.712 317.646,293.929 		"/>
		<polygon style="fill:#454545;" points="319.947,289.162 321.199,289.751 319.426,293.671 317.669,293.945 		"/>
		<polygon style="fill:#414141;" points="319.947,289.162 321.197,289.755 319.43,293.631 317.693,293.962 		"/>
		<polygon style="fill:#3D3D3D;" points="319.947,289.162 321.195,289.76 319.433,293.59 317.717,293.978 		"/>
		<polygon style="fill:#393939;" points="319.947,289.162 321.192,289.765 319.437,293.55 317.741,293.994 		"/>
		<polygon style="fill:#343434;" points="319.947,289.162 321.19,289.769 319.44,293.509 317.766,294.011 		"/>
		<polygon style="fill:#303030;" points="319.947,289.162 321.188,289.774 319.444,293.469 317.79,294.027 		"/>
		<polygon style="fill:#2C2C2C;" points="319.947,289.162 321.185,289.778 319.448,293.428 317.814,294.043 		"/>
		<polygon style="fill:#282828;" points="319.947,289.162 321.183,289.783 319.451,293.388 317.837,294.06 		"/>
	</g>
	<path style="fill-rule:evenodd;clip-rule:evenodd;fill:#ED1B23;" d="M324.61,290.976c0.002-0.442,0-0.872,0.002-1.29
		c0-0.409,0-0.807,0-1.193c0-0.378,0.003-0.745,0.003-1.103c0-0.351,0-0.693,0.007-1.027c-0.02-0.009-0.037-0.018-0.052-0.031
		c0,0.34-0.002,0.691-0.002,1.053c-0.003,0.366-0.007,0.746-0.007,1.132c-0.004,0.815-0.43,1.432-1,1.318
		c-0.465-0.092-0.97-0.196-1.527-0.307c-0.617-0.125-1.311-0.261-2.087-0.418c-0.096,0.629-0.193,1.285-0.298,1.966
		c-0.108,0.715-0.223,1.459-0.347,2.243c0.938-0.104,1.764-0.193,2.484-0.268c0.646-0.069,1.227-0.131,1.742-0.188
		C324.153,292.798,324.61,291.927,324.61,290.976L324.61,290.976z"/>
	<defs>
		
			<filter id="Adobe_OpacityMaskFilter_00000083051758796789102040000006291652008701963446_" filterUnits="userSpaceOnUse" x="312.924" y="287.434" width="6.242" height="3.457">
			<feColorMatrix  type="matrix" values="1 0 0 0 0  0 1 0 0 0  0 0 1 0 0  0 0 0 1 0"/>
		</filter>
	</defs>
	
		<mask maskUnits="userSpaceOnUse" x="312.924" y="287.434" width="6.242" height="3.457" id="SVGID_00000119839528352345734970000014904623254463810441_">
		<g style="filter:url(#Adobe_OpacityMaskFilter_00000083051758796789102040000006291652008701963446_);">
			
				<linearGradient id="SVGID_00000170278597437126310650000011329103102116598161_" gradientUnits="userSpaceOnUse" x1="313.3694" y1="299.6213" x2="310.5679" y2="294.6434" gradientTransform="matrix(-0.5789 -0.8154 -0.8154 0.5789 738.9033 370.547)">
				<stop  offset="0" style="stop-color:#000000"/>
				<stop  offset="0.0849" style="stop-color:#090909"/>
				<stop  offset="0.2266" style="stop-color:#232323"/>
				<stop  offset="0.4076" style="stop-color:#4D4D4D"/>
				<stop  offset="0.6207" style="stop-color:#878787"/>
				<stop  offset="0.8582" style="stop-color:#D0D0D0"/>
				<stop  offset="1" style="stop-color:#FFFFFF"/>
			</linearGradient>
			<polygon style="fill:url(#SVGID_00000170278597437126310650000011329103102116598161_);" points="310.343,288.205 
				314.482,292.341 320.308,288.294 316.174,284.161 			"/>
		</g>
	</mask>
	<g style="mask:url(#SVGID_00000119839528352345734970000014904623254463810441_);">
		<polygon style="fill:#FFFFFF;" points="319.009,289.163 319.166,287.705 312.924,287.434 314.031,290.891 		"/>
		<polygon style="fill:#FBFBFB;" points="319.007,289.163 319.161,287.706 312.941,287.444 314.024,290.861 		"/>
		<polygon style="fill:#F7F7F7;" points="319.005,289.162 319.156,287.706 312.958,287.455 314.018,290.831 		"/>
		<polygon style="fill:#F2F2F2;" points="319.003,289.162 319.15,287.707 312.976,287.465 314.012,290.801 		"/>
		<polygon style="fill:#EEEEEE;" points="319.001,289.162 319.145,287.707 312.993,287.476 314.006,290.771 		"/>
		<polygon style="fill:#EAEAEA;" points="318.999,289.162 319.14,287.708 313.01,287.487 314,290.741 		"/>
		<polygon style="fill:#E6E6E6;" points="318.997,289.162 319.135,287.708 313.027,287.497 313.993,290.711 		"/>
		<polygon style="fill:#E1E1E1;" points="318.994,289.162 319.129,287.708 313.044,287.508 313.987,290.681 		"/>
		<polygon style="fill:#DDDDDD;" points="318.992,289.161 319.124,287.709 313.061,287.519 313.981,290.651 		"/>
		<polygon style="fill:#D9D9D9;" points="318.99,289.161 319.119,287.71 313.079,287.529 313.975,290.621 		"/>
		<polygon style="fill:#D5D5D5;" points="318.988,289.161 319.114,287.71 313.096,287.54 313.968,290.591 		"/>
		<polygon style="fill:#D1D1D1;" points="318.985,289.161 319.108,287.71 313.113,287.55 313.962,290.561 		"/>
		<polygon style="fill:#CCCCCC;" points="318.983,289.161 319.104,287.711 313.13,287.561 313.956,290.531 		"/>
		<polygon style="fill:#C8C8C8;" points="318.981,289.161 319.098,287.711 313.148,287.571 313.95,290.501 		"/>
		<polygon style="fill:#C4C4C4;" points="318.979,289.161 319.093,287.712 313.165,287.582 313.943,290.471 		"/>
		<polygon style="fill:#C0C0C0;" points="318.977,289.16 319.087,287.712 313.182,287.593 313.937,290.441 		"/>
		<polygon style="fill:#BCBCBC;" points="318.975,289.16 319.083,287.713 313.199,287.603 313.931,290.411 		"/>
		<polygon style="fill:#B7B7B7;" points="318.973,289.16 319.077,287.713 313.216,287.614 313.925,290.381 		"/>
		<polygon style="fill:#B3B3B3;" points="318.971,289.16 319.072,287.714 313.233,287.625 313.919,290.352 		"/>
		<polygon style="fill:#AFAFAF;" points="318.968,289.16 319.067,287.714 313.251,287.635 313.912,290.321 		"/>
		<polygon style="fill:#ABABAB;" points="318.966,289.16 319.061,287.715 313.268,287.646 313.906,290.292 		"/>
		<polygon style="fill:#A6A6A6;" points="318.964,289.159 319.056,287.715 313.285,287.656 313.9,290.261 		"/>
		<polygon style="fill:#A2A2A2;" points="318.962,289.159 319.051,287.716 313.302,287.667 313.894,290.231 		"/>
		<polygon style="fill:#9E9E9E;" points="318.96,289.159 319.046,287.716 313.319,287.677 313.887,290.202 		"/>
		<polygon style="fill:#9A9A9A;" points="318.958,289.159 319.04,287.717 313.336,287.688 313.881,290.171 		"/>
		<polygon style="fill:#969696;" points="318.956,289.159 319.035,287.717 313.354,287.699 313.875,290.142 		"/>
		<polygon style="fill:#919191;" points="318.953,289.159 319.03,287.717 313.371,287.709 313.869,290.111 		"/>
		<polygon style="fill:#8D8D8D;" points="318.951,289.159 319.025,287.718 313.388,287.72 313.862,290.082 		"/>
		<polygon style="fill:#898989;" points="318.949,289.158 319.02,287.718 313.405,287.73 313.856,290.051 		"/>
		<polygon style="fill:#858585;" points="318.947,289.158 319.015,287.719 313.422,287.741 313.85,290.022 		"/>
		<polygon style="fill:#818181;" points="318.945,289.158 319.009,287.719 313.44,287.751 313.843,289.992 		"/>
		<polygon style="fill:#7C7C7C;" points="318.942,289.158 319.004,287.72 313.457,287.762 313.837,289.961 		"/>
		<polygon style="fill:#787878;" points="318.94,289.158 318.999,287.72 313.474,287.773 313.831,289.932 		"/>
		<polygon style="fill:#747474;" points="318.938,289.158 318.994,287.721 313.491,287.783 313.825,289.901 		"/>
		<polygon style="fill:#707070;" points="318.936,289.157 318.988,287.721 313.508,287.794 313.818,289.872 		"/>
		<polygon style="fill:#6B6B6B;" points="318.934,289.157 318.983,287.722 313.525,287.805 313.813,289.842 		"/>
		<polygon style="fill:#676767;" points="318.932,289.157 318.978,287.722 313.543,287.815 313.806,289.812 		"/>
		<polygon style="fill:#636363;" points="318.93,289.157 318.973,287.723 313.56,287.826 313.8,289.782 		"/>
		<polygon style="fill:#5F5F5F;" points="318.927,289.157 318.967,287.723 313.577,287.836 313.794,289.751 		"/>
		<polygon style="fill:#5B5B5B;" points="318.925,289.157 318.962,287.724 313.594,287.847 313.787,289.722 		"/>
		<polygon style="fill:#565656;" points="318.923,289.156 318.957,287.724 313.611,287.857 313.781,289.692 		"/>
		<polygon style="fill:#525252;" points="318.921,289.156 318.952,287.725 313.628,287.868 313.775,289.662 		"/>
		<polygon style="fill:#4E4E4E;" points="318.919,289.156 318.946,287.725 313.646,287.879 313.769,289.632 		"/>
		<polygon style="fill:#4A4A4A;" points="318.917,289.156 318.941,287.726 313.663,287.889 313.762,289.602 		"/>
		<polygon style="fill:#464646;" points="318.915,289.156 318.936,287.726 313.68,287.9 313.756,289.572 		"/>
		<polygon style="fill:#414141;" points="318.912,289.156 318.931,287.727 313.697,287.911 313.75,289.542 		"/>
		<polygon style="fill:#3D3D3D;" points="318.91,289.156 318.926,287.727 313.714,287.921 313.744,289.512 		"/>
		<polygon style="fill:#393939;" points="318.908,289.155 318.92,287.728 313.731,287.932 313.737,289.482 		"/>
		<polygon style="fill:#353535;" points="318.906,289.155 318.915,287.728 313.749,287.942 313.731,289.452 		"/>
		<polygon style="fill:#303030;" points="318.904,289.155 318.91,287.729 313.766,287.953 313.725,289.422 		"/>
		<polygon style="fill:#2C2C2C;" points="318.901,289.155 318.905,287.729 313.783,287.963 313.719,289.392 		"/>
		<polygon style="fill:#282828;" points="318.899,289.155 318.899,287.73 313.8,287.974 313.712,289.362 		"/>
	</g>
	<defs>
		
			<filter id="Adobe_OpacityMaskFilter_00000030447069219123412990000005537490928718510745_" filterUnits="userSpaceOnUse" x="319.451" y="287.403" width="6.186" height="4.812">
			<feColorMatrix  type="matrix" values="1 0 0 0 0  0 1 0 0 0  0 0 1 0 0  0 0 0 1 0"/>
		</filter>
	</defs>
	
		<mask maskUnits="userSpaceOnUse" x="319.451" y="287.403" width="6.186" height="4.812" id="SVGID_00000173861017414898285410000016937407280078493588_">
		<g style="filter:url(#Adobe_OpacityMaskFilter_00000030447069219123412990000005537490928718510745_);">
			
				<linearGradient id="SVGID_00000096018436710186222780000007338842945625971644_" gradientUnits="userSpaceOnUse" x1="262.1548" y1="254.8932" x2="259.3424" y2="249.896" gradientTransform="matrix(0.8232 -0.5343 0.5407 0.8234 -28.6987 220.446)">
				<stop  offset="0" style="stop-color:#000000"/>
				<stop  offset="0.0849" style="stop-color:#090909"/>
				<stop  offset="0.2266" style="stop-color:#232323"/>
				<stop  offset="0.4076" style="stop-color:#4D4D4D"/>
				<stop  offset="0.6207" style="stop-color:#878787"/>
				<stop  offset="0.8582" style="stop-color:#D0D0D0"/>
				<stop  offset="1" style="stop-color:#FFFFFF"/>
			</linearGradient>
			<polygon style="fill:url(#SVGID_00000096018436710186222780000007338842945625971644_);" points="327.622,291.076 
				322.379,293.314 318.45,287.462 323.688,285.226 			"/>
		</g>
	</mask>
	<g style="mask:url(#SVGID_00000173861017414898285410000016937407280078493588_);">
		<polygon style="fill:#FFFFFF;" points="319.451,288.791 319.817,287.403 325.637,289.47 323.417,292.215 		"/>
		<polygon style="fill:#FBFBFB;" points="319.451,288.791 319.822,287.405 325.618,289.474 323.433,292.19 		"/>
		<polygon style="fill:#F6F6F6;" points="319.451,288.791 319.827,287.408 325.597,289.477 323.45,292.164 		"/>
		<polygon style="fill:#F2F2F2;" points="319.451,288.791 319.832,287.41 325.578,289.48 323.466,292.138 		"/>
		<polygon style="fill:#EEEEEE;" points="319.451,288.791 319.836,287.413 325.558,289.484 323.483,292.112 		"/>
		<polygon style="fill:#E9E9E9;" points="319.451,288.791 319.841,287.415 325.538,289.487 323.5,292.087 		"/>
		<polygon style="fill:#E5E5E5;" points="319.451,288.791 319.846,287.418 325.518,289.491 323.515,292.062 		"/>
		<polygon style="fill:#E1E1E1;" points="319.451,288.791 319.851,287.42 325.499,289.494 323.532,292.036 		"/>
		<polygon style="fill:#DDDDDD;" points="319.451,288.791 319.855,287.422 325.478,289.497 323.548,292.01 		"/>
		<polygon style="fill:#D8D8D8;" points="319.451,288.791 319.86,287.425 325.458,289.501 323.565,291.984 		"/>
		<polygon style="fill:#D4D4D4;" points="319.451,288.791 319.865,287.427 325.439,289.504 323.582,291.959 		"/>
		<polygon style="fill:#D0D0D0;" points="319.451,288.791 319.87,287.43 325.419,289.507 323.598,291.934 		"/>
		<polygon style="fill:#CBCBCB;" points="319.451,288.791 319.875,287.432 325.399,289.511 323.615,291.908 		"/>
		<polygon style="fill:#C7C7C7;" points="319.451,288.791 319.879,287.435 325.379,289.514 323.631,291.882 		"/>
		<polygon style="fill:#C3C3C3;" points="319.451,288.791 319.884,287.437 325.36,289.518 323.648,291.856 		"/>
		<polygon style="fill:#BEBEBE;" points="319.451,288.791 319.889,287.44 325.339,289.521 323.665,291.831 		"/>
		<polygon style="fill:#BABABA;" points="319.451,288.791 319.894,287.442 325.32,289.524 323.68,291.806 		"/>
		<polygon style="fill:#B6B6B6;" points="319.451,288.791 319.898,287.444 325.3,289.528 323.697,291.78 		"/>
		<polygon style="fill:#B2B2B2;" points="319.451,288.791 319.903,287.447 325.28,289.531 323.713,291.754 		"/>
		<polygon style="fill:#ADADAD;" points="319.451,288.791 319.908,287.449 325.26,289.534 323.73,291.729 		"/>
		<polygon style="fill:#A9A9A9;" points="319.451,288.791 319.913,287.452 325.241,289.538 323.747,291.703 		"/>
		<polygon style="fill:#A5A5A5;" points="319.451,288.791 319.918,287.454 325.22,289.541 323.763,291.678 		"/>
		<polygon style="fill:#A0A0A0;" points="319.451,288.791 319.922,287.457 325.201,289.544 323.78,291.652 		"/>
		<polygon style="fill:#9C9C9C;" points="319.451,288.791 319.927,287.459 325.181,289.548 323.796,291.626 		"/>
		<polygon style="fill:#989898;" points="319.451,288.791 319.932,287.461 325.161,289.551 323.813,291.601 		"/>
		<polygon style="fill:#939393;" points="319.451,288.791 319.936,287.464 325.141,289.555 323.83,291.575 		"/>
		<polygon style="fill:#8F8F8F;" points="319.451,288.791 319.941,287.466 325.122,289.558 323.845,291.55 		"/>
		<polygon style="fill:#8B8B8B;" points="319.451,288.791 319.946,287.468 325.101,289.562 323.862,291.524 		"/>
		<polygon style="fill:#878787;" points="319.451,288.791 319.951,287.471 325.082,289.565 323.878,291.499 		"/>
		<polygon style="fill:#828282;" points="319.451,288.791 319.955,287.473 325.062,289.568 323.895,291.473 		"/>
		<polygon style="fill:#7E7E7E;" points="319.451,288.791 319.96,287.476 325.042,289.572 323.912,291.447 		"/>
		<polygon style="fill:#7A7A7A;" points="319.451,288.791 319.965,287.478 325.022,289.575 323.928,291.422 		"/>
		<polygon style="fill:#757575;" points="319.451,288.791 319.97,287.48 325.002,289.578 323.945,291.396 		"/>
		<polygon style="fill:#717171;" points="319.451,288.791 319.974,287.483 324.982,289.582 323.961,291.371 		"/>
		<polygon style="fill:#6D6D6D;" points="319.451,288.791 319.979,287.485 324.962,289.585 323.978,291.345 		"/>
		<polygon style="fill:#686868;" points="319.451,288.791 319.984,287.488 324.943,289.588 323.995,291.319 		"/>
		<polygon style="fill:#646464;" points="319.451,288.791 319.989,287.49 324.922,289.592 324.01,291.294 		"/>
		<polygon style="fill:#606060;" points="319.451,288.791 319.993,287.493 324.903,289.595 324.027,291.268 		"/>
		<polygon style="fill:#5C5C5C;" points="319.451,288.791 319.998,287.495 324.883,289.599 324.044,291.243 		"/>
		<polygon style="fill:#575757;" points="319.451,288.791 320.003,287.498 324.864,289.602 324.06,291.217 		"/>
		<polygon style="fill:#535353;" points="319.451,288.791 320.008,287.5 324.843,289.605 324.077,291.191 		"/>
		<polygon style="fill:#4F4F4F;" points="319.451,288.791 320.012,287.502 324.824,289.609 324.093,291.166 		"/>
		<polygon style="fill:#4A4A4A;" points="319.451,288.791 320.017,287.505 324.804,289.612 324.11,291.14 		"/>
		<polygon style="fill:#464646;" points="319.451,288.791 320.022,287.507 324.784,289.616 324.126,291.115 		"/>
		<polygon style="fill:#424242;" points="319.451,288.791 320.027,287.51 324.764,289.619 324.143,291.089 		"/>
		<polygon style="fill:#3D3D3D;" points="319.451,288.791 320.031,287.512 324.745,289.622 324.16,291.064 		"/>
		<polygon style="fill:#393939;" points="319.451,288.791 320.036,287.515 324.724,289.626 324.175,291.038 		"/>
		<polygon style="fill:#353535;" points="319.451,288.791 320.041,287.517 324.705,289.629 324.192,291.012 		"/>
		<polygon style="fill:#313131;" points="319.451,288.791 320.046,287.52 324.685,289.632 324.208,290.987 		"/>
		<polygon style="fill:#2C2C2C;" points="319.451,288.791 320.05,287.522 324.665,289.636 324.225,290.961 		"/>
		<polygon style="fill:#282828;" points="319.451,288.791 320.055,287.524 324.645,289.639 324.242,290.936 		"/>
	</g>
	<path style="fill-rule:evenodd;clip-rule:evenodd;fill:#4DA391;" d="M314.302,287.305c0,0.441,0,0.872,0,1.289
		c0,0.41-0.001,0.806-0.001,1.193c-0.003,0.378-0.003,0.746-0.003,1.104c-0.002,0.352,0,0.692-0.004,1.028
		c0.017,0.007,0.033,0.019,0.048,0.03c0.003-0.342,0.003-0.691,0.005-1.052c0.002-0.369,0.005-0.747,0.005-1.133
		c0.003-0.817,0.428-1.432,1.001-1.318c0.46,0.093,0.968,0.196,1.526,0.307c0.617,0.125,1.307,0.261,2.086,0.417
		c0.093-0.629,0.193-1.284,0.298-1.966c0.108-0.714,0.224-1.46,0.345-2.245c-0.939,0.103-1.763,0.194-2.483,0.269
		c-0.647,0.071-1.225,0.131-1.739,0.187C314.76,285.483,314.305,286.353,314.302,287.305L314.302,287.305z"/>
	<path style="fill-rule:evenodd;clip-rule:evenodd;fill:#0094D9;" d="M321.351,284.391c-0.474,0.005-0.93,0.01-1.375,0.014
		c-0.437,0.006-0.859,0.008-1.274,0.011c-0.401,0.005-0.792,0.008-1.174,0.01c-0.374,0.005-0.738,0.01-1.093,0.01
		c-0.008,0.013-0.022,0.031-0.031,0.045c0.363-0.001,0.737-0.005,1.119-0.006c0.392-0.002,0.795-0.006,1.205-0.008
		c0.871-0.007,1.532,0.382,1.419,0.924c-0.096,0.434-0.199,0.911-0.313,1.435c-0.124,0.582-0.263,1.232-0.418,1.964
		c0.668,0.083,1.37,0.168,2.096,0.258c0.765,0.095,1.557,0.192,2.393,0.299c-0.118-0.882-0.224-1.654-0.312-2.33
		c-0.083-0.604-0.154-1.146-0.22-1.631C323.296,284.797,322.364,284.381,321.351,284.391L321.351,284.391z"/>
</g>
</svg>
