<?xml version="1.0" encoding="utf-8"?>
<!-- Generator: Adobe Illustrator 27.5.0, SVG Export Plug-In . SVG Version: 6.00 Build 0)  -->
<svg version="1.1" id="Layer_1" xmlns="http://www.w3.org/2000/svg" xmlns:xlink="http://www.w3.org/1999/xlink" x="0px" y="0px"
	 viewBox="305.393 278.85 28.417 26.079" style="enable-background:new 305.393 278.85 28.417 26.079;" xml:space="preserve">
<rect x="305.393" y="278.852" style="fill:#FFFFFF;" width="28.418" height="26.077"/>
<g>
	<g>
		<path style="fill:#1B8ADD;" d="M312.29,298.256l-0.18-0.434h-0.598l-0.186,0.434h-0.343l0.7-1.679h0.246l0.704,1.679H312.29z
			 M311.806,297.017l-0.18,0.508h0.359L311.806,297.017z"/>
		<path style="fill:#1B8ADD;" d="M313.487,298.286c-0.186,0-0.307-0.053-0.437-0.19v0.16h-0.277v-1.679h0.302v0.538
			c0.117-0.116,0.228-0.162,0.391-0.162c0.362,0,0.634,0.286,0.634,0.663C314.101,297.997,313.841,298.286,313.487,298.286z
			 M313.424,297.23c-0.212,0-0.367,0.161-0.367,0.387c0,0.232,0.155,0.393,0.374,0.393c0.215,0,0.366-0.159,0.366-0.389
			C313.796,297.396,313.639,297.23,313.424,297.23z"/>
		<path style="fill:#1B8ADD;" d="M314.656,298.286c-0.25,0-0.43-0.137-0.461-0.429h0.303c0.031,0.105,0.081,0.151,0.169,0.151
			c0.078,0,0.135-0.053,0.135-0.122c0-0.074-0.011-0.093-0.213-0.162c-0.249-0.083-0.35-0.188-0.35-0.371
			c0-0.218,0.186-0.385,0.418-0.385c0.214,0,0.402,0.141,0.414,0.378h-0.296c-0.013-0.067-0.055-0.1-0.118-0.1
			c-0.066,0-0.116,0.044-0.116,0.106c0,0.065,0.006,0.071,0.213,0.136c0.263,0.081,0.35,0.182,0.35,0.368
			C315.106,298.099,314.909,298.286,314.656,298.286z"/>
		<path style="fill:#1B8ADD;" d="M315.647,297.272v0.984h-0.303v-0.984h-0.149v-0.273h0.149v-0.422h0.303v0.422h0.18v0.273H315.647z
			"/>
		<path style="fill:#1B8ADD;" d="M316.283,297.558v0.698h-0.302v-1.257h0.276v0.12c0.079-0.113,0.144-0.15,0.274-0.15h0.021v0.291
			C316.371,297.266,316.283,297.362,316.283,297.558z"/>
		<path style="fill:#1B8ADD;" d="M317.66,298.256v-0.163c-0.12,0.137-0.241,0.193-0.418,0.193c-0.367,0-0.634-0.273-0.634-0.654
			c0-0.384,0.269-0.663,0.642-0.663c0.182,0,0.308,0.059,0.411,0.197v-0.167h0.278v1.257H317.66z M317.281,297.247
			c-0.216,0-0.368,0.161-0.368,0.391c0,0.223,0.152,0.371,0.373,0.371c0.229,0,0.365-0.165,0.365-0.372
			C317.65,297.407,317.496,297.247,317.281,297.247z"/>
		<path style="fill:#1B8ADD;" d="M318.782,298.286c-0.373,0-0.674-0.292-0.674-0.66c0-0.369,0.292-0.657,0.665-0.657
			c0.285,0,0.537,0.161,0.633,0.45h-0.341c-0.063-0.117-0.157-0.172-0.292-0.172c-0.211,0-0.361,0.157-0.361,0.379
			c0,0.218,0.157,0.383,0.366,0.383c0.125,0,0.21-0.049,0.287-0.165h0.341C319.302,298.124,319.074,298.286,318.782,298.286z"/>
		<path style="fill:#1B8ADD;" d="M319.968,297.272v0.984h-0.303v-0.984h-0.146v-0.273h0.146v-0.422h0.303v0.422h0.182v0.273H319.968
			z"/>
		<path style="fill:#727271;" d="M321.399,298.286c-0.295,0-0.523-0.19-0.551-0.508h0.324c0.012,0.141,0.09,0.208,0.227,0.208
			c0.136,0,0.229-0.084,0.229-0.205c0-0.067-0.029-0.131-0.079-0.17c-0.049-0.039-0.067-0.045-0.29-0.128
			c-0.226-0.085-0.35-0.246-0.35-0.459c0-0.266,0.217-0.477,0.486-0.477c0.271,0,0.482,0.183,0.501,0.477h-0.324
			c-0.009-0.112-0.072-0.178-0.178-0.178c-0.102,0-0.171,0.071-0.171,0.173c0,0.062,0.029,0.112,0.092,0.152
			c0.023,0.013,0.029,0.015,0.188,0.075c0.339,0.126,0.432,0.273,0.432,0.501C321.935,298.051,321.702,298.286,321.399,298.286z"/>
		<path style="fill:#727271;" d="M322.936,298.256v-0.642c0-0.264-0.068-0.367-0.246-0.367c-0.174,0-0.266,0.095-0.266,0.369v0.64
			h-0.304v-1.679h0.304v0.508c0.09-0.083,0.189-0.117,0.319-0.117c0.301,0,0.492,0.164,0.492,0.579v0.709H322.936z"/>
		<path style="fill:#727271;" d="M324.484,298.256v-0.163c-0.122,0.137-0.243,0.193-0.419,0.193c-0.368,0-0.634-0.273-0.634-0.654
			c0-0.384,0.269-0.663,0.641-0.663c0.182,0,0.306,0.059,0.412,0.197v-0.167h0.278v1.257H324.484z M324.106,297.247
			c-0.219,0-0.368,0.161-0.368,0.391c0,0.223,0.149,0.371,0.369,0.371c0.23,0,0.365-0.165,0.365-0.372
			C324.472,297.407,324.319,297.247,324.106,297.247z"/>
		<path style="fill:#727271;" d="M325.677,298.286c-0.158,0-0.272-0.046-0.39-0.147v0.538h-0.301v-1.678h0.278v0.148
			c0.098-0.114,0.241-0.178,0.412-0.178c0.363,0,0.627,0.276,0.627,0.654C326.304,298.005,326.04,298.286,325.677,298.286z
			 M325.639,297.247c-0.209,0-0.368,0.161-0.368,0.379c0,0.218,0.159,0.383,0.375,0.383c0.197,0,0.355-0.165,0.355-0.378
			C326.001,297.412,325.843,297.247,325.639,297.247z"/>
		<path style="fill:#727271;" d="M327.736,297.763h-0.976c0.035,0.151,0.169,0.246,0.349,0.246c0.124,0,0.197-0.034,0.276-0.122
			h0.33c-0.085,0.256-0.349,0.399-0.6,0.399c-0.385,0-0.683-0.285-0.683-0.654c0-0.371,0.292-0.663,0.664-0.663
			c0.376,0,0.65,0.287,0.65,0.677C327.748,297.691,327.744,297.718,327.736,297.763z M327.1,297.247
			c-0.178,0-0.302,0.087-0.349,0.248h0.7C327.411,297.334,327.287,297.247,327.1,297.247z"/>
	</g>
	<g>
		<path style="fill:#1B8ADD;" d="M319.26,293.269c0.224-0.203,0.446-0.426,0.668-0.626c2.258-2.261,2.682-4.543,2.66-5.751
			c-0.068,0.716-0.313,1.365-0.671,1.924c-0.582,1.074-1.741,2.326-4,3.894c0.358,0.604,0.761,1.052,1.095,1.363
			c0.224,0.226,0.492,0.47,0.782,0.673c3.421-2.148,5.118-7.025,2.168-11.052C324.737,287.944,322.165,290.853,319.26,293.269
			L319.26,293.269z"/>
		<path style="fill:#1B8ADD;" d="M320.958,287.115c-0.29-0.089-0.579-0.179-0.872-0.246c-3.019-0.828-5.143-0.044-6.172,0.56
			c0.648-0.29,1.318-0.403,1.945-0.379c1.208-0.024,2.885,0.357,5.346,1.498c0.333-0.827,0.757-1.879,1.002-2.482
			c-3.508-2.014-8.696-1.119-10.686,3.489C313.759,285.102,317.47,285.841,320.958,287.115L320.958,287.115z"/>
		<defs>
			<filter id="Adobe_OpacityMaskFilter" filterUnits="userSpaceOnUse" x="313.867" y="286.357" width="6.725" height="8.006">
				<feColorMatrix  type="matrix" values="1 0 0 0 0  0 1 0 0 0  0 0 1 0 0  0 0 0 1 0"/>
			</filter>
		</defs>
		<mask maskUnits="userSpaceOnUse" x="313.867" y="286.357" width="6.725" height="8.006" id="SVGID_1_">
			<g style="filter:url(#Adobe_OpacityMaskFilter);">
				
					<linearGradient id="SVGID_00000021841616764445775860000018253891092144334525_" gradientUnits="userSpaceOnUse" x1="327.1523" y1="298.6056" x2="321.4968" y2="293.8557" gradientTransform="matrix(0.8584 0.3902 -0.4204 0.7597 166.0883 -61.2553)">
					<stop  offset="0.1206" style="stop-color:#000000"/>
					<stop  offset="0.655" style="stop-color:#ABABAB"/>
					<stop  offset="0.9315" style="stop-color:#FFFFFF"/>
				</linearGradient>
				<polygon style="fill:url(#SVGID_00000021841616764445775860000018253891092144334525_);" points="318.997,294.321 
					323.665,291.267 317.178,288.164 316.403,288.549 317.54,292.062 				"/>
			</g>
		</mask>
		<g style="mask:url(#SVGID_1_);">
			<path style="fill:#FFFFFF;" d="M318.706,286.378c-2.69,2.691,1.874,7.349,1.886,7.338c-0.026,0.026-8.703-2.431-4.378,0.622
				c0.337,0.237-2.281-1.274-2.347-2.073c-0.025-0.308,0.289-0.552,1.315-0.605c0.855-0.049,1.765,0.075,2.304,0.108
				C316.565,287.93,318.94,286.141,318.706,286.378L318.706,286.378z"/>
			<path style="fill-rule:evenodd;clip-rule:evenodd;fill:#F3F3F3;" d="M320.547,293.697c-0.013-0.002-0.026-0.008-0.045-0.009
				c-0.063-0.02-0.134-0.038-0.2-0.054c-0.228-0.061-0.46-0.123-0.69-0.176c-0.658-0.167-1.31-0.325-1.952-0.456
				c-0.599-0.124-1.23-0.236-1.802-0.281c-0.279-0.025-0.838-0.051-0.984,0.146c-0.11,0.151,0.044,0.366,0.166,0.507
				c0.124,0.144,0.279,0.284,0.436,0.412c0.208,0.178,0.437,0.348,0.668,0.515c-0.143-0.082-0.378-0.234-0.421-0.258
				c-0.335-0.223-0.662-0.45-0.958-0.689c-0.326-0.268-0.856-0.731-0.887-1.089c-0.038-0.48,0.812-0.572,1.297-0.596
				c0.414-0.023,0.838-0.006,1.271,0.021c0.341,0.028,0.692,0.064,1.037,0.09l0.017-0.004l0.001-0.012
				c-0.329-1.37-0.328-2.778,0.249-4.04c0.159-0.343,0.364-0.687,0.622-1.005c0.053-0.061,0.107-0.121,0.165-0.184
				c-0.396,0.447-0.62,0.937-0.707,1.454c-0.064,0.37-0.049,0.745,0.007,1.124c0.179,1.022,0.75,2.102,1.467,3.096
				c0.264,0.367,0.551,0.73,0.87,1.093c0.095,0.106,0.19,0.21,0.292,0.313C320.493,293.637,320.516,293.667,320.547,293.697
				L320.547,293.697L320.547,293.697z"/>
			<path style="fill-rule:evenodd;clip-rule:evenodd;fill:#E8E8E8;" d="M320.51,293.678c-0.005-0.001-0.005-0.001-0.005-0.005
				c-0.073-0.018-0.134-0.033-0.211-0.051c-0.229-0.056-0.458-0.121-0.688-0.176c-0.662-0.167-1.308-0.321-1.946-0.454
				c-0.594-0.12-1.229-0.236-1.803-0.28c-0.287-0.02-0.843-0.049-0.991,0.154c-0.12,0.149,0.04,0.371,0.163,0.516
				c0.126,0.14,0.279,0.278,0.435,0.414c0.151,0.123,0.301,0.244,0.463,0.363c-0.07-0.043-0.142-0.087-0.212-0.132
				c-0.329-0.22-0.649-0.445-0.938-0.682c-0.329-0.263-0.855-0.728-0.88-1.079c-0.04-0.473,0.804-0.564,1.279-0.592
				c0.412-0.02,0.839-0.006,1.267,0.028c0.341,0.026,0.694,0.062,1.037,0.083l0.04,0.001l-0.011-0.017
				c-0.322-1.375-0.317-2.773,0.254-4.029c0.114-0.258,0.259-0.516,0.43-0.765c-0.196,0.318-0.321,0.662-0.373,1.011
				c-0.069,0.37-0.053,0.747,0.005,1.129c0.178,1.019,0.747,2.098,1.466,3.104c0.258,0.357,0.549,0.725,0.873,1.088
				c0.092,0.103,0.187,0.21,0.282,0.313C320.474,293.637,320.49,293.654,320.51,293.678L320.51,293.678z"/>
			<path style="fill-rule:evenodd;clip-rule:evenodd;fill:#DBDEDF;" d="M320.471,293.652c-0.064-0.013-0.118-0.03-0.179-0.042
				c-0.232-0.065-0.461-0.122-0.687-0.176c-0.657-0.169-1.301-0.318-1.945-0.452c-0.595-0.122-1.228-0.232-1.804-0.28
				c-0.293-0.021-0.852-0.049-1.003,0.154c-0.125,0.158,0.041,0.382,0.167,0.526c0.125,0.146,0.283,0.288,0.436,0.419
				c0.079,0.069,0.158,0.141,0.254,0.206c-0.323-0.21-0.641-0.436-0.924-0.67c-0.326-0.258-0.847-0.722-0.881-1.072
				c-0.034-0.468,0.805-0.551,1.278-0.58c0.407-0.019,0.834-0.004,1.263,0.027c0.341,0.025,0.686,0.062,1.04,0.085l0.053,0.004
				l-0.011-0.038c-0.325-1.362-0.328-2.762,0.248-4.014c0.074-0.167,0.162-0.338,0.259-0.503c-0.116,0.239-0.191,0.484-0.233,0.739
				c-0.063,0.37-0.05,0.745,0.013,1.126c0.171,1.023,0.745,2.102,1.465,3.104c0.264,0.369,0.553,0.733,0.871,1.093
				c0.097,0.105,0.186,0.21,0.29,0.313C320.448,293.635,320.46,293.647,320.471,293.652L320.471,293.652z"/>
			<path style="fill-rule:evenodd;clip-rule:evenodd;fill:#D0D1D3;" d="M320.434,293.635c-0.052-0.014-0.094-0.025-0.142-0.037
				c-0.231-0.06-0.46-0.118-0.685-0.178c-0.661-0.165-1.304-0.314-1.944-0.443c-0.593-0.123-1.227-0.238-1.806-0.286
				c-0.3-0.017-0.855-0.046-1.016,0.165c-0.125,0.159,0.034,0.387,0.165,0.533c0.128,0.146,0.283,0.289,0.437,0.422
				c0.025,0.02,0.043,0.037,0.069,0.052c-0.254-0.169-0.497-0.348-0.717-0.526c-0.324-0.258-0.849-0.72-0.876-1.07
				c-0.033-0.459,0.801-0.543,1.266-0.57c0.411-0.02,0.831-0.004,1.258,0.023c0.345,0.028,0.693,0.064,1.045,0.088l0.067,0.005
				l-0.013-0.044c-0.32-1.362-0.321-2.757,0.24-4.009c0.047-0.1,0.093-0.204,0.15-0.304c-0.064,0.171-0.109,0.35-0.142,0.529
				c-0.062,0.374-0.05,0.753,0.016,1.129c0.173,1.026,0.744,2.104,1.461,3.112c0.266,0.363,0.557,0.729,0.874,1.089
				c0.089,0.108,0.184,0.212,0.29,0.313C320.426,293.629,320.432,293.632,320.434,293.635L320.434,293.635z"/>
			<path style="fill-rule:evenodd;clip-rule:evenodd;fill:#C5C6C8;" d="M320.39,293.614c-0.032-0.012-0.06-0.023-0.1-0.027
				c-0.232-0.061-0.46-0.12-0.688-0.177c-0.655-0.167-1.297-0.315-1.927-0.445c-0.6-0.126-1.237-0.237-1.817-0.282
				c-0.308-0.023-0.866-0.052-1.032,0.167c-0.12,0.162,0.038,0.392,0.172,0.539c0.098,0.119,0.216,0.231,0.336,0.341
				c-0.183-0.132-0.357-0.267-0.533-0.398c-0.317-0.261-0.837-0.722-0.866-1.061c-0.042-0.456,0.793-0.54,1.25-0.564
				c0.412-0.024,0.833-0.005,1.262,0.026c0.337,0.022,0.688,0.061,1.038,0.086l0.084,0.005l-0.012-0.059
				c-0.324-1.36-0.325-2.746,0.233-3.991c0.023-0.049,0.046-0.102,0.069-0.15c-0.039,0.118-0.064,0.241-0.087,0.362
				c-0.063,0.37-0.051,0.748,0.016,1.129c0.169,1.029,0.748,2.108,1.461,3.112c0.262,0.363,0.553,0.732,0.871,1.094
				C320.21,293.419,320.3,293.518,320.39,293.614L320.39,293.614z"/>
			<path style="fill-rule:evenodd;clip-rule:evenodd;fill:#BABBBD;" d="M320.353,293.59c-0.021-0.007-0.034-0.008-0.06-0.014
				c-0.234-0.062-0.46-0.118-0.692-0.176c-0.651-0.169-1.297-0.318-1.929-0.45c-0.596-0.119-1.23-0.232-1.813-0.278
				c-0.311-0.025-0.88-0.049-1.042,0.175c-0.124,0.164,0.034,0.394,0.167,0.554c0.067,0.067,0.126,0.139,0.205,0.209
				c-0.127-0.092-0.251-0.19-0.376-0.289c-0.314-0.253-0.837-0.713-0.867-1.053c-0.039-0.453,0.794-0.528,1.243-0.55
				c0.408-0.023,0.832-0.004,1.258,0.025c0.342,0.024,0.692,0.063,1.037,0.085l0.099,0.003l-0.011-0.074
				c-0.325-1.349-0.324-2.736,0.23-3.981c0,0,0.001-0.004,0.004-0.005c-0.017,0.067-0.033,0.142-0.046,0.206
				c-0.067,0.379-0.055,0.758,0.013,1.13c0.176,1.032,0.742,2.118,1.467,3.127c0.262,0.359,0.553,0.731,0.867,1.089
				C320.198,293.416,320.276,293.5,320.353,293.59L320.353,293.59z"/>
			<path style="fill-rule:evenodd;clip-rule:evenodd;fill:#B0B1B3;" d="M320.314,293.572c-0.003-0.001-0.011-0.005-0.019-0.009
				c-0.233-0.058-0.468-0.118-0.693-0.175c-0.653-0.166-1.294-0.311-1.931-0.446c-0.603-0.121-1.23-0.234-1.812-0.275
				c-0.316-0.027-0.886-0.053-1.053,0.172c-0.126,0.168,0.029,0.4,0.165,0.565c0.038,0.039,0.071,0.072,0.099,0.106
				c-0.084-0.063-0.17-0.128-0.247-0.192c-0.313-0.255-0.832-0.714-0.864-1.054c-0.039-0.44,0.79-0.514,1.232-0.536
				c0.409-0.022,0.828-0.007,1.255,0.023c0.34,0.026,0.687,0.062,1.041,0.086l0.12,0.008l-0.013-0.084
				c-0.323-1.308-0.336-2.643,0.169-3.856c-0.008,0.026-0.01,0.05-0.016,0.078c-0.062,0.374-0.054,0.75,0.01,1.13
				c0.179,1.033,0.747,2.114,1.467,3.119c0.269,0.367,0.556,0.737,0.874,1.1C320.169,293.412,320.245,293.491,320.314,293.572
				L320.314,293.572z"/>
			<path style="fill-rule:evenodd;clip-rule:evenodd;fill:#A3A6A7;" d="M320.282,293.549c-0.229-0.057-0.452-0.114-0.677-0.171
				c-0.655-0.163-1.297-0.314-1.926-0.443c-0.599-0.12-1.241-0.236-1.821-0.281c-0.323-0.03-0.895-0.044-1.062,0.176
				c-0.137,0.175,0.025,0.411,0.169,0.58c0.008,0.006,0.009,0.013,0.014,0.017c-0.047-0.039-0.097-0.076-0.147-0.117
				c-0.311-0.253-0.829-0.709-0.858-1.043c-0.037-0.433,0.789-0.511,1.217-0.53c0.409-0.021,0.828-0.003,1.255,0.027
				c0.344,0.022,0.691,0.06,1.04,0.083l0.139,0.011l-0.022-0.095c-0.308-1.264-0.326-2.553,0.121-3.729
				c-0.052,0.356-0.037,0.721,0.026,1.081c0.168,1.034,0.745,2.115,1.47,3.123c0.258,0.368,0.546,0.734,0.867,1.1
				C320.153,293.405,320.213,293.483,320.282,293.549L320.282,293.549z"/>
			<path style="fill-rule:evenodd;clip-rule:evenodd;fill:#979B9A;" d="M320.245,293.531c-0.215-0.059-0.43-0.111-0.635-0.163
				c-0.659-0.163-1.3-0.315-1.932-0.447c-0.602-0.117-1.241-0.234-1.821-0.277c-0.327-0.024-0.897-0.051-1.075,0.183
				c-0.12,0.159-0.004,0.364,0.12,0.532c-0.017-0.021-0.042-0.041-0.059-0.052c-0.308-0.251-0.828-0.71-0.859-1.039
				c-0.032-0.428,0.788-0.498,1.209-0.525c0.405-0.018,0.828-0.004,1.249,0.029c0.345,0.025,0.696,0.063,1.048,0.087l0.15,0.009
				l-0.025-0.108c-0.294-1.22-0.321-2.461,0.082-3.606c-0.031,0.317-0.02,0.641,0.033,0.963c0.176,1.03,0.748,2.115,1.473,3.123
				c0.263,0.367,0.553,0.738,0.867,1.102C320.126,293.401,320.185,293.47,320.245,293.531L320.245,293.531z"/>
			<path style="fill-rule:evenodd;clip-rule:evenodd;fill:#8D9091;" d="M320.208,293.511c-0.198-0.056-0.403-0.108-0.608-0.154
				c-0.648-0.163-1.286-0.314-1.918-0.44c-0.604-0.122-1.236-0.24-1.821-0.285c-0.337-0.025-0.915-0.04-1.092,0.19
				c-0.104,0.141-0.032,0.317,0.075,0.471c-0.305-0.246-0.814-0.703-0.85-1.021c-0.034-0.428,0.789-0.494,1.203-0.515
				c0.405-0.02,0.821-0.006,1.244,0.024c0.345,0.023,0.697,0.064,1.045,0.091l0.173,0.008l-0.027-0.117
				c-0.287-1.182-0.324-2.387,0.047-3.498c-0.024,0.282-0.012,0.567,0.038,0.858c0.174,1.026,0.754,2.112,1.477,3.126
				c0.256,0.369,0.546,0.729,0.865,1.095C320.11,293.397,320.158,293.453,320.208,293.511L320.208,293.511z"/>
			<path style="fill-rule:evenodd;clip-rule:evenodd;fill:#828385;" d="M320.174,293.493c-0.193-0.05-0.378-0.1-0.568-0.145
				c-0.655-0.165-1.296-0.315-1.923-0.44c-0.604-0.122-1.241-0.241-1.828-0.286c-0.343-0.025-0.918-0.043-1.099,0.192
				c-0.088,0.124-0.044,0.28,0.041,0.425c-0.308-0.252-0.765-0.669-0.791-0.972c-0.034-0.412,0.79-0.479,1.194-0.504
				c0.405-0.016,0.826-0.003,1.241,0.027c0.341,0.025,0.695,0.062,1.046,0.087l0.187,0.011l-0.032-0.128
				c-0.274-1.142-0.316-2.304,0.009-3.393c-0.007,0.254,0.013,0.497,0.051,0.749c0.172,1.034,0.749,2.116,1.471,3.132
				c0.263,0.367,0.558,0.737,0.87,1.097C320.085,293.397,320.126,293.44,320.174,293.493L320.174,293.493z"/>
			<path style="fill-rule:evenodd;clip-rule:evenodd;fill:#797A7C;" d="M320.137,293.473c-0.179-0.053-0.355-0.094-0.53-0.139
				c-0.655-0.16-1.292-0.309-1.925-0.436c-0.6-0.127-1.236-0.24-1.825-0.283c-0.352-0.027-0.924-0.047-1.113,0.196
				c-0.086,0.113-0.061,0.25,0.01,0.38c-0.3-0.252-0.71-0.635-0.737-0.922c0.001-0.032,0.005-0.066,0.008-0.096
				c0.084-0.316,0.816-0.379,1.176-0.398c0.4-0.022,0.819-0.007,1.243,0.028c0.341,0.023,0.69,0.063,1.041,0.084l0.207,0.017
				l-0.035-0.145c-0.274-1.111-0.317-2.236-0.018-3.284c-0.003,0.214,0.017,0.428,0.053,0.643c0.169,1.033,0.741,2.123,1.467,3.135
				c0.263,0.369,0.557,0.734,0.874,1.095C320.065,293.394,320.101,293.429,320.137,293.473L320.137,293.473z"/>
			<path style="fill-rule:evenodd;clip-rule:evenodd;fill:#6D706F;" d="M320.104,293.451c-0.167-0.045-0.328-0.084-0.499-0.13
				c-0.645-0.157-1.284-0.311-1.921-0.435c-0.6-0.126-1.241-0.238-1.832-0.284c-0.348-0.025-0.926-0.042-1.117,0.2
				c-0.079,0.104-0.067,0.225-0.017,0.344c-0.295-0.249-0.658-0.61-0.685-0.877c0.003-0.035-0.001-0.065,0.007-0.095
				c0.081-0.308,0.816-0.372,1.161-0.387c0.405-0.024,0.82-0.009,1.238,0.027c0.352,0.02,0.696,0.064,1.05,0.085l0.217,0.017
				l-0.031-0.158c-0.265-1.074-0.317-2.16-0.05-3.184c0,0.184,0.024,0.363,0.054,0.545c0.169,1.037,0.742,2.12,1.469,3.136
				c0.264,0.367,0.555,0.74,0.872,1.102C320.045,293.391,320.075,293.42,320.104,293.451L320.104,293.451z"/>
			<path style="fill-rule:evenodd;clip-rule:evenodd;fill:#626564;" d="M320.068,293.429c-0.153-0.04-0.309-0.079-0.462-0.114
				c-0.645-0.166-1.284-0.312-1.916-0.441c-0.603-0.122-1.245-0.24-1.832-0.279c-0.362-0.028-0.945-0.047-1.133,0.204
				c-0.075,0.091-0.071,0.201-0.037,0.314c-0.281-0.249-0.618-0.591-0.641-0.843c0-0.034,0.001-0.06,0.008-0.095
				c0.075-0.299,0.809-0.363,1.145-0.381c0.411-0.023,0.825-0.004,1.242,0.027c0.343,0.024,0.691,0.065,1.046,0.087l0.233,0.019
				l-0.034-0.17c-0.253-1.036-0.312-2.092-0.069-3.082c0.004,0.144,0.021,0.296,0.042,0.449c0.173,1.036,0.743,2.12,1.468,3.137
				c0.266,0.367,0.56,0.736,0.878,1.096C320.024,293.385,320.045,293.41,320.068,293.429L320.068,293.429z"/>
			<path style="fill-rule:evenodd;clip-rule:evenodd;fill:#575A59;" d="M320.032,293.406c-0.141-0.031-0.287-0.069-0.425-0.101
				c-0.65-0.158-1.285-0.314-1.916-0.438c-0.605-0.127-1.247-0.243-1.832-0.287c-0.37-0.026-0.953-0.043-1.145,0.213
				c-0.067,0.087-0.072,0.182-0.048,0.279c-0.27-0.243-0.582-0.57-0.604-0.805c-0.008-0.03-0.001-0.06,0.004-0.091
				c0.079-0.303,0.808-0.359,1.135-0.374c0.407-0.016,0.819-0.004,1.237,0.025c0.345,0.024,0.697,0.066,1.047,0.088l0.253,0.019
				l-0.038-0.182c-0.248-1-0.307-2.021-0.095-2.983c0.01,0.115,0.023,0.23,0.038,0.348c0.173,1.037,0.746,2.126,1.474,3.144
				c0.265,0.366,0.556,0.736,0.871,1.102C320.005,293.38,320.022,293.393,320.032,293.406L320.032,293.406z"/>
			<path style="fill-rule:evenodd;clip-rule:evenodd;fill:#4C4D4F;" d="M319.994,293.391c-0.127-0.032-0.256-0.066-0.38-0.097
				c-0.651-0.162-1.291-0.313-1.915-0.441c-0.611-0.121-1.253-0.237-1.844-0.277c-0.374-0.026-0.961-0.042-1.154,0.211
				c-0.057,0.078-0.072,0.165-0.058,0.253c-0.262-0.235-0.549-0.545-0.569-0.767c-0.002-0.036-0.004-0.065,0.005-0.091
				c0.079-0.293,0.806-0.355,1.124-0.369c0.408-0.024,0.824-0.001,1.234,0.03c0.343,0.025,0.695,0.06,1.051,0.087l0.273,0.017
				l-0.047-0.189c-0.234-0.973-0.307-1.962-0.117-2.893c0.015,0.086,0.024,0.172,0.036,0.255c0.172,1.038,0.744,2.129,1.47,3.15
				c0.268,0.362,0.559,0.734,0.879,1.101C319.99,293.376,319.99,293.38,319.994,293.391L319.994,293.391z"/>
			<path style="fill-rule:evenodd;clip-rule:evenodd;fill:#404144;" d="M319.962,293.37c-0.112-0.033-0.237-0.063-0.351-0.091
				c-0.646-0.161-1.291-0.309-1.916-0.435c-0.603-0.123-1.247-0.239-1.838-0.279c-0.378-0.028-0.971-0.047-1.17,0.218
				c-0.056,0.067-0.064,0.141-0.056,0.223c-0.258-0.229-0.529-0.516-0.548-0.732c-0.001-0.036,0.001-0.066,0.005-0.087
				c0.081-0.29,0.806-0.346,1.118-0.367c0.404-0.014,0.824,0.001,1.235,0.026c0.342,0.029,0.696,0.068,1.044,0.089l0.296,0.026
				l-0.054-0.205c-0.228-0.945-0.298-1.893-0.131-2.802c0.009,0.055,0.019,0.113,0.025,0.167c0.17,1.039,0.744,2.128,1.478,3.148
				C319.352,292.64,319.648,293.011,319.962,293.37L319.962,293.37z"/>
			<path style="fill-rule:evenodd;clip-rule:evenodd;fill:#33373A;" d="M319.934,293.35c-0.108-0.025-0.217-0.05-0.316-0.078
				c-0.651-0.161-1.294-0.31-1.92-0.436c-0.609-0.125-1.25-0.241-1.841-0.284c-0.383-0.024-0.982-0.041-1.186,0.227
				c-0.043,0.063-0.061,0.132-0.057,0.204c-0.242-0.228-0.496-0.504-0.516-0.714c-0.007-0.023-0.002-0.054,0.003-0.081
				c0.078-0.281,0.803-0.341,1.108-0.353c0.406-0.022,0.82-0.004,1.234,0.028c0.346,0.022,0.696,0.061,1.042,0.087l0.308,0.022
				l-0.051-0.216c-0.221-0.909-0.295-1.829-0.151-2.707c0.008,0.022,0.009,0.047,0.012,0.079c0.175,1.036,0.749,2.131,1.473,3.149
				C319.333,292.634,319.621,292.996,319.934,293.35L319.934,293.35z"/>
			<path style="fill-rule:evenodd;clip-rule:evenodd;fill:#282C2F;" d="M319.894,293.329c-0.093-0.02-0.184-0.048-0.279-0.071
				c-0.649-0.155-1.289-0.307-1.912-0.429c-0.612-0.13-1.257-0.242-1.846-0.283c-0.391-0.033-0.987-0.042-1.191,0.23
				c-0.042,0.05-0.063,0.117-0.065,0.179c-0.239-0.222-0.475-0.491-0.487-0.688c-0.006-0.026-0.005-0.053,0.007-0.076
				c0.068-0.276,0.787-0.336,1.093-0.352c0.403-0.016,0.812,0,1.227,0.034c0.348,0.021,0.696,0.062,1.046,0.085l0.324,0.022
				l-0.05-0.224c-0.221-0.879-0.296-1.767-0.167-2.618c0.179,1.037,0.749,2.123,1.471,3.138
				C319.316,292.63,319.591,292.98,319.894,293.329L319.894,293.329z"/>
			<path style="fill-rule:evenodd;clip-rule:evenodd;fill:#1C2023;" d="M319.86,293.308c-0.082-0.018-0.163-0.032-0.243-0.058
				c-0.647-0.159-1.283-0.308-1.915-0.433c-0.608-0.122-1.248-0.241-1.842-0.28c-0.4-0.033-0.996-0.043-1.204,0.229
				c-0.038,0.056-0.061,0.11-0.066,0.165c-0.229-0.22-0.45-0.468-0.464-0.662c-0.003-0.024-0.001-0.054,0.004-0.074
				c0.071-0.272,0.79-0.327,1.085-0.342c0.4-0.02,0.815,0.001,1.224,0.029c0.347,0.022,0.697,0.064,1.047,0.087l0.344,0.025
				l-0.058-0.241c-0.207-0.848-0.283-1.707-0.178-2.531c0.193,1.016,0.755,2.073,1.458,3.065
				C319.294,292.624,319.568,292.973,319.86,293.308L319.86,293.308z"/>
		</g>
		<path style="fill:#1B8ADD;" d="M316.575,287.542c0,0.311,0.022,0.626,0.045,0.915c0.224,3.201,1.655,4.99,2.594,5.795
			c-0.494-0.536-0.827-1.14-1.028-1.768c-0.425-1.164-0.604-2.885-0.292-5.659c-0.692-0.023-1.542-0.068-2.19-0.113
			c-0.203,0.068-0.403,0.113-0.582,0.179c-0.671,4.006,1.9,8.569,6.908,8.971C317.001,295.169,316.486,291.321,316.575,287.542
			L316.575,287.542z"/>
	</g>
	<rect x="310.447" y="298.883" style="fill:#1B8ADD;" width="17.995" height="0.092"/>
	<rect x="310.447" y="296.075" style="fill:#1B8ADD;" width="5.559" height="0.093"/>
	<rect x="322.66" y="296.075" style="fill:#1B8ADD;" width="5.559" height="0.093"/>
</g>
</svg>
