<?xml version="1.0" encoding="utf-8"?>
<!-- Generator: Adobe Illustrator 27.5.0, SVG Export Plug-In . SVG Version: 6.00 Build 0)  -->
<svg version="1.1" id="Layer_1" xmlns="http://www.w3.org/2000/svg" xmlns:xlink="http://www.w3.org/1999/xlink" x="0px" y="0px"
	 viewBox="0 0 4000 4000" style="enable-background:new 0 0 4000 4000;" xml:space="preserve">
<g>
	<rect x="0.5" y="0.5" style="fill:#FFFFFF;" width="3999" height="3999"/>
	<path d="M3999,1v3998H1V1H3999 M4000,0H0v4000h4000V0L4000,0z"/>
</g>
<g>
	<path d="M1712.665,1400.65c30.208-27.424,44.698-53.153,44.779-53.294l10.482-18.238l-18.338-10.12
		c-89.981-49.643-166.385-32.528-216.67-7.369c26.529,1.789,53.096,7.335,77.315,16.355
		C1651.853,1343.479,1685.903,1368.446,1712.665,1400.65"/>
	<path d="M1411.514,2325.083c70.085,136.186,131.839,348.852,106.572,663.139c-25.461,19.137-47.896,49.305-51.245,81.492h138.312
		l26.12-604.105c-36.94-41.19-79.707-64.479-135.158-92.556C1466.208,2357.912,1438.052,2343.226,1411.514,2325.083"/>
	<path d="M2158.878,2255.624c6.549,7.086,12.613,14.261,18.135,21.504c16.48,21.608,27.917,43.559,32.673,64.952
		c26.971,121.262,114.8,296.299,135.278,336.156l-95.413,246.847l-0.268,0.504c-20.767,58.924-58.502,79.082-69.363,83.81
		c-72.903-1.615-80.097,53.078-80.122,53.24l-1.109,7.079h205.548l7.889-25.006l195.14-385.965l-7.177-9.769
		c-48.93-66.615-57.789-143.396-50.864-211.45c-20.138-24.901-39.436-50.844-56.139-77.62c-10.778-17.282-27.973-31.6-44.836-42.656
		C2296.023,2282.999,2224.459,2263.833,2158.878,2255.624"/>
	<path d="M1398.724,1247.544l-26.115-55.388c366.097,113.016,845.396-68.731,889.728-315.601
		c-373.668,437.723-928.02,213.851-929.627,213.221l-71.801-25.717l45.699,145.034
		C1338.253,1219.628,1369.066,1232.432,1398.724,1247.544"/>
	<path d="M1886.113,1160.391c254.656-240.564,98.411-474.35,8.145-505.565c192.215,267.341-92.399,481.586-93.09,482.239
		L1886.113,1160.391z"/>
	<path d="M1717.455,1176.261c0.735-0.704,232.428-270.644-43.38-555.617c-36.401,67.206,216.321,285.25-44.506,534.447
		L1717.455,1176.261z"/>
	<path d="M1709.332,818.799c-52.78-62.777-124.304-106.281-176.075-82.472c111.435,40.896,162.771,142.6,184.937,207.928
		C1724.595,899.413,1719.442,857.262,1709.332,818.799"/>
	<path d="M1330.934,1089.21c-0.898-0.257-313.605-88.926-313.605-275.901c-62.824,142.378,161.624,311.946,303.493,352.478
		L1330.934,1089.21z"/>
	<path d="M1167.219,1039.208c-0.086-0.299-65.046-143.127,51.734-254.827c-105.669-8.039-147.713,141.015-127.737,210.163
		L1167.219,1039.208z"/>
	<path style="fill-rule:evenodd;clip-rule:evenodd;" d="M2597.401,1783.548c-49.415-18.867-101.513-18.034-147.646-1.386
		c40.578,29.514,74.099,69.557,98.306,103.89c25.949-0.302,52.403,4.181,78.126,14.002c47.055,17.971,84.003,50.882,107.544,91.253
		C2737.734,1902.394,2685.101,1817.041,2597.401,1783.548"/>
	<path style="fill-rule:evenodd;clip-rule:evenodd;fill:#53C406;" d="M1502.15,1427.974
		c-47.508,302.959,438.06,479.891,675.951,479.205c0,0-128.075-31.306-241.038-98.959c25.457,4.388,52.335,8.346,80.822,11.784
		c7.462,0.977,151.933,20.101,322.045-1.212c22.609,1.316,286.368,4.917,247.21,340.528c-0.563,3.658-12,122.49,28.921,241.634
		c-46.903-75.717-82.684-168.604-82.684-168.604c-10.948,168.385,170.446,345.689,170.446,345.689
		c-233.861-217.729-238.223-228.57-356.074-517.726c0,0-24.457,123.569-55.965,112.31
		c-195.099-69.728-285.156-89.196-456.574,17.749l-94.666-66.598l32.559,302.156c-10.241-54.941-103.803-161.671-181.597-218.229
		c0,0,75.99,92.033,97.635,192.827c0.004,0.009-16.57-38.165-75.692-74.015c-90.26-54.743-170.703-58.312-230.26-170.778
		c-47.797-90.241-34.283-198.404-34.734-328.122c-0.208-59.495-4.875-117.876-18.515-172.842
		c57.561,68.668,99.316,140.15,99.316,140.15c-73.925-306.66-305.895-401.207-305.879-401.187
		c-29.956-15.726-63.725-29.753-101.798-41.844c-5.426-25.909-12.079-93.885,61.461-112.354
		c23.781-0.775,224.708-3.01,390.088,136.255l7.29,6.143l9.285-1.536c0.38-0.062,126.138-22.113,191.974,94.705
		c-30.105,7.567-88.297,14.947-148.707-16.985L1502.15,1427.974z"/>
	<path style="fill-rule:evenodd;clip-rule:evenodd;fill:#007B70;" d="M2260.267,1993.344
		c-120.47-21.906-257.373,49.282-257.373,49.282c187.554-36.964,305.29,41.07,305.29,41.07l49.282-110.888
		c13.689,171.124,141.006,283.385,141.006,283.385c-19.164-53.391-15.058-180.708-15.058-180.708
		c9.582,87.617,76.666,132.791,76.666,132.791c-15.06-61.606,20.522-205.689,20.522-205.689c10.53,41.9,13.924,93.405,6.536,156.734
		c-0.563,3.658-12,122.49,28.921,241.634c-46.903-75.717-82.684-168.604-82.684-168.604
		c-10.948,168.385,170.446,345.689,170.446,345.689c-233.861-217.729-238.223-228.57-356.074-517.726
		c0,0-24.457,123.569-55.965,112.31c-195.099-69.728-285.156-89.196-456.574,17.749l-94.666-66.598l32.559,302.156
		c-10.241-54.941-103.803-161.671-181.597-218.229c0,0,75.99,92.033,97.635,192.827c0.004,0.009-16.57-38.165-75.692-74.015
		c-90.26-54.743-170.703-58.312-230.26-170.778c-47.797-90.241-34.283-198.404-34.734-328.122
		c-0.208-59.495-4.875-117.876-18.515-172.842c57.561,68.668,99.316,140.15,99.316,140.15l-57.479-15.158
		c12.322,447.661,173.869,428.513,173.869,428.513c-28.748-50.654-38.331-165.648-38.331-165.648
		c26.012,104.042,168.386,158.806,168.386,158.806c2.736-47.913-16.425-169.758-16.425-169.758
		c67.082,17.794,157.436,45.176,157.436,45.176c47.299-67.235,162.908-120.472,162.908-120.472
		c-101.306-19.169-277.886-193.612-277.886-193.612c149.662,93.983,348.686,144.781,476.368,144.413
		C2225.104,1920.818,2260.267,1993.344,2260.267,1993.344"/>
	<path style="fill-rule:evenodd;clip-rule:evenodd;fill:#EBF855;" d="M1348.149,1872.98c0.217-14.824,0.361-29.94,0.307-45.368
		c-0.016-4.971-0.066-9.934-0.149-14.884c1.217,17.071,1.25,36.968-0.153,60.144L1348.149,1872.98z M1590.082,2313.266
		c-80.759-42.938-152.526-54.867-206.892-157.532c-36.347-68.627-37.239-147.617-35.777-238.571
		C1354.164,2166.935,1549.048,2290.076,1590.082,2313.266z M1597.649,2317.367l-0.112-0.062l0.12,0.062H1597.649z"/>
	<path style="fill-rule:evenodd;clip-rule:evenodd;fill:#106B60;" d="M1289.875,1466.62
		c76.392,92.911,123.196,218.789,139.382,328.3c-73.925-306.66-305.895-401.207-305.879-401.187
		c-29.956-15.726-63.725-29.753-101.798-41.844c-3.92-18.715-8.477-59.374,17.005-87.473c-8.742,30.883,10.108,67.686,10.108,67.686
		s207.364-19.165,340.16,220.411C1388.853,1552.514,1343.869,1505.781,1289.875,1466.62"/>
	<path style="fill-rule:evenodd;clip-rule:evenodd;fill:#EBF855;" d="M2580.604,2002.586
		c-30.255-38.723-109.363-121.502-158.907-109.555c-18.842,4.553-41.686,7.219-66.303,7.219c-13.077,0-56.133-2.75-86.202-13.226
		c-102.926-35.855-122.997-20.957-219.763-44.953c0,0,99.027,56.846,126.74,64.619c-16.408-4.201-134.264-35.68-239.106-98.47
		c25.457,4.388,52.335,8.346,80.822,11.784c6.849,0.898,129.172,17.084,280.792,3.242c16.802-3.275,36.136-5.137,56.717-5.137
		c60.033,0,109.498,15.858,116.253,36.285C2516.949,1880.141,2561.061,1924.805,2580.604,2002.586"/>
	<path style="fill-rule:evenodd;clip-rule:evenodd;fill:#EBF855;" d="M1540.559,1420.996c-23.176,1.366-38.409,6.979-38.409,6.979
		c-22.009,140.358,70.397,253.663,199.583,334.792c0,0-114.532-29.464-193.627-129.798c12.956,69.399,43.687,101.638,43.687,101.638
		c-153.329-123.214-117.056-312.137-117.056-312.137s-83.16-138.135-396.153-158.052c9.797-10.803,24.033-19.753,44.456-24.882
		c23.781-0.775,224.708-3.01,390.088,136.255l7.29,6.143l9.285-1.536c0.38-0.062,126.138-22.113,191.974,94.705
		C1681.678,1475.102,1626.703,1414.82,1540.559,1420.996"/>
	<path d="M1256.575,1845.411c0.318,91.902,0.641,182.733,28.444,261.633c56.143,159.294,139.711,201.611,222.483,243.518
		c120.182,60.852,265.254,126.354,277.704,620.724c-26.094,24.307-46.973,61.97-41.518,98.032l19.136,0.402v-0.004h119.193
		l-47.358-760.527c10.584-14.306,24.707-26.679,41.551-37.184c59.002-36.811,149.715-50.67,241.233-45.462
		c91.972,5.236,183.837,29.754,244.63,69.62c22.725,14.902,40.806,31.803,52.405,50.397
		c65.745,105.404,206.764,241.29,239.325,272.074l-7.935,264.525l-0.084,0.568c0,62.475-28.888,94.032-37.561,102.101
		c-69.292,22.708-57.896,76.686-57.867,76.843l1.304,7.046h196.139l-3.15-94.531l55.749-428.881l-10.017-6.83
		c-169.85-115.804-126.835-373.391-126.723-374.147l0.084-0.729c46.413-394.53-315.746-402.13-316.723-402.171l-1.631-0.07
		l-1.846,0.233c-169.69,21.545-313.221,1.423-313.64,1.37l-0.323-0.084c-417.374-50.371-479.188-195.087-486.261-256.026
		c93.09,34.186,175.33-1.404,175.592-1.512l19.384-8.175l-8.472-19.153c-64.463-145.686-200.055-143.941-237.182-140.531
		c-187.036-152.495-413.077-140.105-413.735-140.077l-2.273,0.104l-1.606,0.38c-136.785,32.569-90.3,175.166-90.172,175.575
		l3.328,10.481l10.415,3.1C1255.238,1464.509,1255.921,1657.389,1256.575,1845.411 M1348.456,1827.612
		c-0.208-59.495-4.875-117.876-18.515-172.842c57.561,68.668,99.316,140.15,99.316,140.15
		c-73.925-306.66-305.895-401.207-305.895-401.207l0.016,0.021c-29.956-15.726-63.725-29.753-101.798-41.844
		c-5.426-25.909-12.079-93.885,61.461-112.354c23.781-0.775,224.708-3.01,390.088,136.255l7.29,6.143l9.285-1.536
		c0.38-0.062,126.138-22.113,191.974,94.705c-30.105,7.567-88.297,14.947-148.707-16.985l-30.82-30.142
		c-47.508,302.959,438.06,479.891,675.951,479.205c0,0-128.075-31.306-241.038-98.959c25.457,4.388,52.335,8.346,80.822,11.784
		c7.462,0.977,151.933,20.101,322.045-1.212c22.609,1.316,286.368,4.917,247.21,340.528c-0.563,3.658-12,122.49,28.921,241.634
		c-46.903-75.717-82.684-168.604-82.684-168.604c-10.948,168.385,170.446,345.689,170.446,345.689
		c-233.861-217.729-238.223-228.57-356.074-517.726c0,0-24.457,123.569-55.965,112.31
		c-195.099-69.728-285.156-89.196-456.574,17.749l-94.666-66.598l32.559,302.156c-10.241-54.941-103.803-161.671-181.597-218.229
		c0,0,75.99,92.033,97.635,192.827c0.004,0.009-16.57-38.165-75.692-74.015c-90.26-54.743-170.703-58.312-230.26-170.778
		C1335.392,2065.493,1348.907,1957.33,1348.456,1827.612z"/>
	<path style="fill-rule:evenodd;clip-rule:evenodd;fill:#EBF855;" d="M1472.384,2045.374c0,0-17.794-80.77,2.74-114.995
		c0,0,31.79,101.575,113.625,143.744c0,0-97.866-152.448-86.246-268.322C1397.479,1858.07,1433.826,1978.495,1472.384,2045.374"/>
	<path d="M2032.004,995.731c192.753-225.342,48.897-432.628-36.009-461.549c80.203,110.478,78.383,212.19,48.732,293.475
		C2055.929,877.098,2054.848,934.423,2032.004,995.731"/>
	<path style="fill-rule:evenodd;clip-rule:evenodd;fill:#106B60;" d="M1505.034,1429.221
		c16.343,3.894,162.612,20.047,148.037,51.042c-31.803,3.588-75.342,1.51-120.101-22.146l-28.209-27.584
		C1504.933,1429.704,1505.034,1429.221,1505.034,1429.221"/>
	<path style="fill-rule:evenodd;clip-rule:evenodd;fill:#53C406;" d="M2147.434,733.164c-12.324-24.493-11.615-54.701,4.49-79.281
		c16.111-24.579,43.525-37.287,70.899-35.763c12.327,24.491,11.619,54.701-4.492,79.281
		C2202.226,721.98,2174.811,734.687,2147.434,733.164"/>
	<path style="fill-rule:evenodd;clip-rule:evenodd;fill:#53C406;" d="M1115.466,803.492c-22.663-15.432-36.709-42.189-34.552-71.499
		c2.157-29.306,19.959-53.724,44.635-65.676c22.662,15.432,36.704,42.189,34.547,71.499
		C1157.943,767.123,1140.14,791.541,1115.466,803.492"/>
	<path style="fill-rule:evenodd;clip-rule:evenodd;fill:#53C406;" d="M1738.399,674.742c-18.697-20.056-26.483-49.25-17.915-77.361
		c8.572-28.11,31.326-47.995,58.035-54.205c18.693,20.056,26.484,49.25,17.91,77.361
		C1787.857,648.647,1765.101,668.529,1738.399,674.742"/>
	<path style="fill-rule:evenodd;clip-rule:evenodd;fill:#53C406;" d="M1643.947,734.568c-27.108-4.103-51.345-22.15-62.086-49.503
		c-10.742-27.357-5.259-57.073,11.814-78.528c27.11,4.106,51.345,22.154,62.087,49.508
		C1666.503,683.397,1661.022,713.113,1643.947,734.568"/>
	<path style="fill-rule:evenodd;clip-rule:evenodd;fill:#53C406;" d="M2223.854,1000.247c11.636-24.823,35.822-42.937,65.104-45.467
		c29.279-2.529,56.213,11.169,71.934,33.633c-11.639,24.827-35.826,42.941-65.104,45.469
		C2266.51,1036.408,2239.575,1022.713,2223.854,1000.247"/>
	<path style="fill-rule:evenodd;clip-rule:evenodd;fill:#53C406;" d="M999.079,922.034c-22.634,15.482-52.669,18.801-79.173,6.114
		c-26.51-12.691-42.756-38.168-44.892-65.505c22.634-15.478,52.665-18.802,79.173-6.11
		C980.695,869.225,996.943,894.702,999.079,922.034"/>
	<path style="fill-rule:evenodd;clip-rule:evenodd;fill:#53C406;" d="M1992.406,1171.194c20.113-18.635,49.333-26.335,77.419-17.679
		c28.081,8.656,47.896,31.471,54.027,58.196c-20.109,18.634-49.329,26.335-77.415,17.678
		C2018.352,1220.733,1998.536,1197.918,1992.406,1171.194"/>
	<path style="fill-rule:evenodd;clip-rule:evenodd;fill:#53C406;" d="M1256.409,934.026c27.039,4.537,50.988,22.966,61.292,50.487
		c10.307,27.523,4.35,57.149-13.063,78.326c-27.039-4.537-50.988-22.966-61.292-50.489
		C1233.043,984.833,1238.995,955.207,1256.409,934.026"/>
	<path style="fill-rule:evenodd;clip-rule:evenodd;fill:#53C406;" d="M1840.914,908.147c-18.697-20.056-26.483-49.25-17.915-77.361
		c8.571-28.11,31.326-47.994,58.033-54.203c18.694,20.054,26.484,49.248,17.911,77.358
		C1890.371,882.052,1867.617,901.934,1840.914,908.147"/>
	<path style="fill:#231916;" d="M2990.228,3189.003h67.824c30.97,0,45.925,22.738,45.657,44.721
		c-0.265,26.255-14.687,44.727-47.259,44.727h-66.222V3189.003z M3058.851,3291.265c40.855,0,60.882-26.745,60.612-57.272
		c-0.266-29.195-20.825-58.345-61.411-58.345c-27.501,0-54.739,0-82.241,0v187.177h14.416v-70.758h51.002l64.616,70.758h18.958
		L3058.851,3291.265z M2825.748,3189.268h114.816v-13.619h-128.969v187.177h132.173v-13.883h-118.021v-73.697h109.478v-13.086
		h-109.478V3189.268z M2661.801,3189.268h114.818v-13.619h-128.972v187.177h132.175v-13.883h-118.021v-73.697h109.478v-13.086
		h-109.478V3189.268z M2520.285,3189.268c53.936,0,79.572,38.761,80.37,77.836c0.803,40.139-24.832,81.84-80.37,81.84h-48.865
		v-159.676H2520.285z M2520.285,3175.649c-21.094,0-42.188,0-63.282,0v187.177c21.095,0,42.189,0,63.282,0
		c65.418,0,95.854-48.107,94.788-95.722C2614.003,3221.086,2583.567,3175.649,2520.285,3175.649z M2373.159,3328.114h-104.936
		v-42.188h101.2v-32.842h-101.2v-43.257h104.936v-34.179h-139.913c0,62.393,0,124.963,0,187.177h139.913V3328.114z
		 M2165.423,3362.826h35.246v-186.643h-40.318l-58.477,80.237l-58.476-80.237h-40.585v186.643h35.246v-135.688l59.544,81.306h6.942
		l60.877-81.036V3362.826z M1880.788,3204.219c44.059,0,61.68,35.246,61.147,66.755c-0.534,30.706-17.088,63.816-61.147,63.816
		c-44.055,0-60.613-32.841-61.412-63.551C1818.574,3239.734,1836.733,3204.219,1880.788,3204.219z M1880.788,3172.181
		c-64.616,0-96.124,49.395-96.124,98.525c0,49.134,30.441,96.392,96.124,96.392c65.687,0,95.325-48.326,95.86-96.656
		C1977.182,3221.575,1945.14,3172.181,1880.788,3172.181z M1759.838,3206.624c-14.154-28.839-44.325-37.115-73.433-37.115
		c-34.443,0.266-72.359,16.021-72.359,54.471c0,41.919,35.246,52.069,73.429,56.604c24.832,2.671,43.255,9.882,43.255,27.503
		c0,20.294-20.826,28.035-42.987,28.035c-22.696,0-44.325-9.078-52.603-29.638l-29.369,15.22
		c13.884,34.178,43.255,45.926,81.438,45.926c41.654,0,78.502-17.89,78.502-59.544c0-44.59-36.313-54.736-75.299-59.545
		c-22.431-2.669-41.654-7.207-41.654-23.495c0-13.884,12.551-24.832,38.716-24.832c20.294,0,37.916,10.146,44.323,20.826
		L1759.838,3206.624z M1583.604,3328.114h-104.936v-42.188h101.198v-32.842h-101.198v-43.257h104.936v-34.179H1443.69
		c0,62.393,0,124.963,0,187.177h139.914V3328.114z M1422.597,3175.649h-39.519l-42.722,135.022l-46.729-135.022h-22.961
		l-45.393,135.022l-44.059-135.022H1141.7l68.621,187.177h29.903l22.696-58.299l19.491-59.632l19.762,59.097l23.229,58.833h29.904
		L1422.597,3175.649z M1096.838,3294.738h-69.421l34.712-79.748L1096.838,3294.738z M1126.745,3362.826h38.45l-83.843-187.177
		h-38.451l-83.843,187.177h38.186l16.019-35.247h97.726L1126.745,3362.826z"/>
	<path style="fill:#231916;" d="M2932.402,3453.569h-33.015v-13.276h31.84v-10.332h-31.84v-13.605h33.015v-10.754h-44.017
		c0,19.629,0,39.312,0,58.887h44.017V3453.569z M2803.755,3464.489v-21.757h29.486v-10.25h-29.486v-16.044h31.165v-10.67h-42.255
		v58.721H2803.755z M2736.268,3464.489v-58.887h-11.002v58.887H2736.268z M2630.051,3405.602v58.887h41.332v-10.25h-30.243v-48.637
		H2630.051z M2538.461,3415.935c6.97,0,10.08,4.719,10.08,9.449s-3.028,9.451-10.08,9.451h-16.884v-18.901H2538.461z
		 M2562.568,3463.731l-17.807-20.075c11.171-2.268,14.869-10.415,14.869-18.523c0-10.203-7.31-19.447-21.169-19.53
		c-9.325,0.083-18.653,0-27.973,0v58.887h11.089v-19.658h10.667l17.137,19.658h13.187V3463.731z M2426.11,3414.588
		c13.863,0,19.406,11.089,19.237,21.003c-0.167,9.662-5.374,20.076-19.237,20.076c-13.858,0-19.069-10.332-19.318-19.992
		C2406.54,3425.761,2412.252,3414.588,2426.11,3414.588z M2426.11,3404.509c-20.328,0-30.242,15.539-30.242,31
		c0,15.456,9.579,30.323,30.242,30.323c20.664,0,29.99-15.207,30.159-30.412C2456.436,3420.048,2446.355,3404.509,2426.11,3404.509z
		 M2311.914,3464.489v-21.757h29.484v-10.25h-29.484v-16.044h31.165v-10.67h-42.255v58.721H2311.914z M2227.459,3415.346
		c-4.45-9.073-13.945-11.677-23.101-11.677c-10.833,0.082-22.762,5.041-22.762,17.137c0,13.187,11.089,16.38,23.101,17.808
		c7.811,0.839,13.607,3.107,13.607,8.655c0,6.383-6.554,8.82-13.524,8.82c-7.14,0-13.945-2.855-16.549-9.325l-9.239,4.79
		c4.366,10.749,13.605,14.446,25.618,14.446c13.105,0,24.7-5.627,24.7-18.731c0-14.029-11.425-17.224-23.689-18.736
		c-7.058-0.84-13.104-2.267-13.104-7.392c0-4.367,3.948-7.81,12.181-7.81c6.383,0,11.926,3.191,13.941,6.552L2227.459,3415.346z
		 M2126.036,3453.569h-33.015v-13.276h31.839v-10.332h-31.839v-13.605h33.015v-10.754h-44.017c0,19.629,0,39.312,0,58.887h44.017
		V3453.569z M2014.949,3442.116l-28.814-36.514h-8.99v58.887h11.089v-39.705l30.912,39.705h6.888v-58.887h-11.085V3442.116z
		 M1919.906,3464.489v-58.887h-11.003v58.887H1919.906z M1852.418,3415.346c-4.451-9.073-13.946-11.677-23.103-11.677
		c-10.833,0.082-22.761,5.041-22.761,17.137c0,13.187,11.089,16.38,23.102,17.808c7.811,0.839,13.605,3.107,13.605,8.655
		c0,6.383-6.553,8.82-13.523,8.82c-7.14,0-13.945-2.855-16.548-9.325l-9.239,4.79c4.366,10.749,13.605,14.446,25.618,14.446
		c13.105,0,24.7-5.627,24.7-18.731c0-14.029-11.425-17.224-23.69-18.736c-7.057-0.84-13.105-2.267-13.105-7.392
		c0-4.367,3.95-7.81,12.183-7.81c6.382,0,11.924,3.191,13.941,6.552L1852.418,3415.346z M1750.908,3415.346
		c-4.449-9.073-13.944-11.677-23.102-11.677c-10.832,0.082-22.761,5.041-22.761,17.137c0,13.187,11.089,16.38,23.101,17.808
		c7.811,0.839,13.605,3.107,13.605,8.655c0,6.383-6.552,8.82-13.523,8.82c-7.139,0-13.944-2.855-16.548-9.325l-9.239,4.79
		c4.366,10.749,13.605,14.446,25.618,14.446c13.105,0,24.7-5.627,24.7-18.731c0-14.029-11.425-17.224-23.689-18.736
		c-7.058-0.84-13.106-2.267-13.106-7.392c0-4.367,3.95-7.81,12.183-7.81c6.383,0,11.924,3.191,13.941,6.552L1750.908,3415.346z
		 M1637.975,3405.768v33.686c0,10.083-5.208,16.213-14.363,16.213c-9.158,0-15.204-5.629-15.204-16.213v-33.686h-11.006v33.686
		c0,17.725,12.012,26.294,26.127,26.294c14.785,0,25.452-8.905,25.452-26.294v-33.686H1637.975z M1521.597,3405.602
		c-9.327,0-18.647,0-27.891,0v58.887c9.325,0,18.564,0,27.891,0c12.178,0,22.009-4.201,22.009-17.308
		c0-3.695-2.522-11.001-9.41-13.1c5.46-2.438,7.646-6.822,7.646-11.384C1541.842,3410.809,1533.187,3405.602,1521.597,3405.602z
		 M1504.625,3415.682h16.972c7.057,0,9.239,4.564,9.239,7.268c0,3.386-2.269,6.341-9.239,6.341h-16.972V3415.682z
		 M1504.625,3439.036h16.972c4.537,0,11.002,2.774,11.002,8.064c0,5.545-6.465,7.057-11.002,7.057h-16.972V3439.036z
		 M1402.449,3415.935c6.972,0,10.08,4.719,10.08,9.449s-3.026,9.451-10.08,9.451h-16.883v-18.901H1402.449z M1426.557,3463.731
		l-17.806-20.075c11.17-2.268,14.868-10.415,14.868-18.523c0-10.203-7.31-19.447-21.17-19.53c-9.325,0.083-18.652,0-27.973,0v58.887
		h11.089v-19.658h10.667l17.137,19.658h13.187V3463.731z M1306.566,3405.768v33.686c0,10.083-5.208,16.213-14.365,16.213
		c-9.156,0-15.203-5.629-15.203-16.213v-33.686h-11.008v33.686c0,17.725,12.014,26.294,26.129,26.294
		c14.785,0,25.453-8.905,25.453-26.294v-33.686H1306.566z M1181.703,3414.588c13.863,0,19.404,11.089,19.235,21.003
		c-0.165,9.662-5.372,20.076-19.235,20.076c-13.859,0-19.071-10.332-19.319-19.992
		C1162.131,3425.761,1167.843,3414.588,1181.703,3414.588z M1181.703,3404.509c-20.328,0-30.242,15.539-30.242,31
		c0,15.456,9.578,30.323,30.242,30.323c20.663,0,29.99-15.207,30.159-30.412C1212.027,3420.048,1201.948,3404.509,1181.703,3404.509
		z"/>
</g>
</svg>
